
<?plantuml 1.2026.2?><svg xmlns="http://www.w3.org/2000/svg" xmlns:xlink="http://www.w3.org/1999/xlink" contentStyleType="text/css" data-diagram-type="DESCRIPTION" height="657px" preserveAspectRatio="none" style="width:709px;height:657px;background:#FFFFFF;" version="1.1" viewBox="0 0 709 657" width="709px" zoomAndPan="magnify"><title>Diagram nasazen&#237; - IS &#352;achov&#233; z&#225;pasy</title><defs/><g><g class="title" data-source-line="15"><text fill="#000000" font-family="Arial" font-size="14" font-weight="bold" lengthAdjust="spacing" textLength="302.4629" x="196.2886" y="22.9951">Diagram nasazen&#237; - IS &#352;achov&#233; z&#225;pasy</text></g><!--cluster Browser--><g class="cluster" data-qualified-name="Browser" data-source-line="17" id="ent0002"><polygon fill="#E9ECEF" points="43,53.2969,53,43.2969,300,43.2969,300,184.2969,290,194.2969,43,194.2969,43,53.2969" style="stroke:#343A40;stroke-width:1;"/><line style="stroke:#343A40;stroke-width:1;" x1="290" x2="300" y1="53.2969" y2="43.2969"/><line style="stroke:#343A40;stroke-width:1;" x1="43" x2="290" y1="53.2969" y2="53.2969"/><line style="stroke:#343A40;stroke-width:1;" x1="290" x2="290" y1="53.2969" y2="194.2969"/><text fill="#000000" font-family="Arial" font-size="14" font-style="italic" lengthAdjust="spacing" textLength="63.2666" x="135.8667" y="69.292">&#171;device&#187;</text><text fill="#000000" font-family="Arial" font-size="14" font-weight="bold" lengthAdjust="spacing" textLength="169.1826" x="82.9087" y="85.5889">Prohl&#237;&#382;e&#269; (PC / mobil)</text></g><!--cluster AppServer--><g class="cluster" data-qualified-name="AppServer" data-source-line="21" id="ent0004"><polygon fill="#E9ECEF" points="43,269.2969,53,259.2969,489,259.2969,489,416.2969,479,426.2969,43,426.2969,43,269.2969" style="stroke:#343A40;stroke-width:1;"/><line style="stroke:#343A40;stroke-width:1;" x1="479" x2="489" y1="269.2969" y2="259.2969"/><line style="stroke:#343A40;stroke-width:1;" x1="43" x2="479" y1="269.2969" y2="269.2969"/><line style="stroke:#343A40;stroke-width:1;" x1="479" x2="479" y1="269.2969" y2="426.2969"/><text fill="#000000" font-family="Arial" font-size="14" font-style="italic" lengthAdjust="spacing" textLength="61.5986" x="231.2007" y="285.292">&#171;server&#187;</text><text fill="#000000" font-family="Arial" font-size="14" font-weight="bold" lengthAdjust="spacing" textLength="127.4082" x="198.2959" y="301.5889">Aplika&#269;n&#237; server</text><text fill="#000000" font-family="Arial" font-size="14" font-weight="bold" lengthAdjust="spacing" textLength="177.3926" x="173.3037" y="317.8857">(Render.com / Docker)</text></g><!--cluster DBServer--><g class="cluster" data-qualified-name="DBServer" data-source-line="26" id="ent0007"><polygon fill="#E9ECEF" points="16,501.2969,26,491.2969,239,491.2969,239,630.2969,229,640.2969,16,640.2969,16,501.2969" style="stroke:#343A40;stroke-width:1;"/><line style="stroke:#343A40;stroke-width:1;" x1="229" x2="239" y1="501.2969" y2="491.2969"/><line style="stroke:#343A40;stroke-width:1;" x1="16" x2="229" y1="501.2969" y2="501.2969"/><line style="stroke:#343A40;stroke-width:1;" x1="229" x2="229" y1="501.2969" y2="640.2969"/><text fill="#000000" font-family="Arial" font-size="14" font-style="italic" lengthAdjust="spacing" textLength="61.5986" x="92.7007" y="517.292">&#171;server&#187;</text><text fill="#000000" font-family="Arial" font-size="14" font-weight="bold" lengthAdjust="spacing" textLength="147.8271" x="49.5864" y="533.5889">Datab&#225;zov&#253; server</text><text fill="#000000" font-family="Arial" font-size="14" font-weight="bold" lengthAdjust="spacing" textLength="139.166" x="53.917" y="549.8857">(Supabase Cloud)</text></g><!--entity FE--><g class="entity" data-qualified-name="Browser.FE" data-source-line="18" id="ent0003"><rect fill="#E7F5FF" height="62.5938" rx="2.5" ry="2.5" style="stroke:#1864AB;stroke-width:0.5;" width="189.9395" x="86" y="107.2969"/><rect fill="#E7F5FF" height="10" style="stroke:#1864AB;stroke-width:0.5;" width="15" x="255.9395" y="112.2969"/><rect fill="#E7F5FF" height="2" style="stroke:#1864AB;stroke-width:0.5;" width="4" x="253.9395" y="114.2969"/><rect fill="#E7F5FF" height="2" style="stroke:#1864AB;stroke-width:0.5;" width="4" x="253.9395" y="118.2969"/><text fill="#000000" font-family="Arial" font-size="14" lengthAdjust="spacing" textLength="119.4648" x="101" y="140.292">Webov&#225; aplikace</text><text fill="#000000" font-family="Arial" font-size="14" lengthAdjust="spacing" textLength="149.9395" x="101" y="156.5889">(React, Tailwind CSS)</text></g><!--entity BE--><g class="entity" data-qualified-name="AppServer.BE" data-source-line="22" id="ent0005"><rect fill="#E7F5FF" height="62.5938" rx="2.5" ry="2.5" style="stroke:#1864AB;stroke-width:0.5;" width="126.96" x="86.5" y="339.2969"/><rect fill="#E7F5FF" height="10" style="stroke:#1864AB;stroke-width:0.5;" width="15" x="193.46" y="344.2969"/><rect fill="#E7F5FF" height="2" style="stroke:#1864AB;stroke-width:0.5;" width="4" x="191.46" y="346.2969"/><rect fill="#E7F5FF" height="2" style="stroke:#1864AB;stroke-width:0.5;" width="4" x="191.46" y="350.2969"/><text fill="#000000" font-family="Arial" font-size="14" lengthAdjust="spacing" textLength="86.96" x="101.5" y="372.292">Backend API</text><text fill="#000000" font-family="Arial" font-size="14" lengthAdjust="spacing" textLength="63.0957" x="101.5" y="388.5889">(Node.js)</text></g><!--entity Engine--><g class="entity" data-qualified-name="AppServer.Engine" data-source-line="23" id="ent0006"><rect fill="#E7F5FF" height="62.5938" rx="2.5" ry="2.5" style="stroke:#1864AB;stroke-width:0.5;" width="215.6016" x="249" y="339.2969"/><rect fill="#E7F5FF" height="10" style="stroke:#1864AB;stroke-width:0.5;" width="15" x="444.6016" y="344.2969"/><rect fill="#E7F5FF" height="2" style="stroke:#1864AB;stroke-width:0.5;" width="4" x="442.6016" y="346.2969"/><rect fill="#E7F5FF" height="2" style="stroke:#1864AB;stroke-width:0.5;" width="4" x="442.6016" y="350.2969"/><text fill="#000000" font-family="Arial" font-size="14" lengthAdjust="spacing" textLength="111.9932" x="264" y="372.292">P&#225;rovac&#237; engine</text><text fill="#000000" font-family="Arial" font-size="14" lengthAdjust="spacing" textLength="175.6016" x="264" y="388.5889">(Swiss / ka&#382;d&#253; s ka&#382;d&#253;m)</text></g><!--entity DB--><g class="entity" data-qualified-name="DBServer.DB" data-source-line="27" id="ent0008"><path d="M113.5,581.2969 C113.5,571.2969 163.8765,571.2969 163.8765,571.2969 C163.8765,571.2969 214.2529,571.2969 214.2529,581.2969 L214.2529,606.5938 C214.2529,616.5938 163.8765,616.5938 163.8765,616.5938 C163.8765,616.5938 113.5,616.5938 113.5,606.5938 L113.5,581.2969" fill="#FFF3CD" style="stroke:#856404;stroke-width:0.5;"/><path d="M113.5,581.2969 C113.5,591.2969 163.8765,591.2969 163.8765,591.2969 C163.8765,591.2969 214.2529,591.2969 214.2529,581.2969" fill="none" style="stroke:#856404;stroke-width:0.5;"/><text fill="#000000" font-family="Arial" font-size="14" lengthAdjust="spacing" textLength="80.7529" x="123.5" y="608.292">PostgreSQL</text></g><g class="entity" data-qualified-name="GMN11" data-source-line="33" id="ent0012"><path d="M323.5,118.7969 L323.5,134.7969 L276.32,138.7969 L323.5,142.7969 L323.5,159.0625 A0,0 0 0 0 323.5,159.0625 L492.2544,159.0625 A0,0 0 0 0 492.2544,159.0625 L492.2544,128.7969 L482.2544,118.7969 L323.5,118.7969 A0,0 0 0 0 323.5,118.7969" fill="#FEFFDD" style="stroke:#181818;stroke-width:0.5;"/><path d="M482.2544,118.7969 L482.2544,128.7969 L492.2544,128.7969 L482.2544,118.7969" fill="#FEFFDD" style="stroke:#181818;stroke-width:0.5;"/><text fill="#000000" font-family="Arial" font-size="13" lengthAdjust="spacing" textLength="147.7544" x="329.5" y="135.8638">NFR01 - responzivn&#237; UI</text><text fill="#000000" font-family="Arial" font-size="13" lengthAdjust="spacing" textLength="128.1782" x="329.5" y="150.9966">pro mobiln&#237; za&#345;&#237;zen&#237;</text></g><g class="entity" data-qualified-name="GMN14" data-source-line="34" id="ent0015"><path d="M513.5,350.7969 L513.5,366.7969 L465.34,370.7969 L513.5,374.7969 L513.5,391.0625 A0,0 0 0 0 513.5,391.0625 L702.04,391.0625 A0,0 0 0 0 702.04,391.0625 L702.04,360.7969 L692.04,350.7969 L513.5,350.7969 A0,0 0 0 0 513.5,350.7969" fill="#FEFFDD" style="stroke:#181818;stroke-width:0.5;"/><path d="M692.04,350.7969 L692.04,360.7969 L702.04,360.7969 L692.04,350.7969" fill="#FEFFDD" style="stroke:#181818;stroke-width:0.5;"/><text fill="#000000" font-family="Arial" font-size="13" lengthAdjust="spacing" textLength="112.7598" x="519.5" y="367.8638">NFR02 - p&#225;rov&#225;n&#237;</text><text fill="#000000" font-family="Arial" font-size="13" lengthAdjust="spacing" textLength="167.54" x="519.5" y="382.9966">zvl&#225;dne v&#283;t&#353;&#237; po&#269;et hr&#225;&#269;&#367;</text></g><g class="entity" data-qualified-name="GMN17" data-source-line="35" id="ent0018"><path d="M263.5,573.7969 L263.5,589.7969 L214.8,593.7969 L263.5,597.7969 L263.5,614.0625 A0,0 0 0 0 263.5,614.0625 L404.2485,614.0625 A0,0 0 0 0 404.2485,614.0625 L404.2485,583.7969 L394.2485,573.7969 L263.5,573.7969 A0,0 0 0 0 263.5,573.7969" fill="#FEFFDD" style="stroke:#181818;stroke-width:0.5;"/><path d="M394.2485,573.7969 L394.2485,583.7969 L404.2485,583.7969 L394.2485,573.7969" fill="#FEFFDD" style="stroke:#181818;stroke-width:0.5;"/><text fill="#000000" font-family="Arial" font-size="13" lengthAdjust="spacing" textLength="119.7485" x="269.5" y="590.8638">NFR03 - z&#225;mky p&#345;i</text><text fill="#000000" font-family="Arial" font-size="13" lengthAdjust="spacing" textLength="103.5874" x="269.5" y="605.9966">z&#225;pisu v&#253;sledk&#367;</text></g><!--link Browser to AppServer--><g class="link" data-entity-1="ent0002" data-entity-2="ent0004" data-link-type="dependency" data-source-line="30" id="lnk9"><path d="M51,194.9108 C51,200.9571 51,207.3096 51,213.8664 C51,226.9798 51,240.91 51,254.8394 C51,255.71 51,256.5805 51,257.4509 C51,257.8861 51,252.3213 51,252.7563" fill="none" id="Browser-to-AppServer" style="stroke:#181818;stroke-width:1;"/><polygon fill="#181818" points="51,258.7563,55,249.7563,51,253.7563,47,249.7563,51,258.7563" style="stroke:#181818;stroke-width:1;"/><text fill="#000000" font-family="Arial" font-size="13" lengthAdjust="spacing" textLength="125.8867" x="52" y="231.3638">HTTPS (REST/JSON)</text></g><!--link AppServer to DBServer--><g class="link" data-entity-1="ent0004" data-entity-2="ent0007" data-link-type="dependency" data-source-line="31" id="lnk10"><path d="M51,426.9472 C51,427.6824 51,428.422 51,429.1659 C51,430.6535 51,432.1581 51,433.6779 C51,436.7177 51,439.8187 51,442.9688 C51,455.5691 51,468.9541 51,482.3381 C51,484.0111 51,485.6841 51,487.3556 C51,488.1913 51,489.0266 51,489.8614 C51,490.2788 51,484.696 51,485.1131" fill="none" id="AppServer-to-DBServer" style="stroke:#181818;stroke-width:1;"/><polygon fill="#181818" points="51,491.1131,55,482.1131,51,486.1131,47,482.1131,51,491.1131" style="stroke:#181818;stroke-width:1;"/><text fill="#000000" font-family="Arial" font-size="13" lengthAdjust="spacing" textLength="86.106" x="52" y="463.3638">SQL p&#345;es SSL</text></g><?plantuml-src TPBFRjf04CRlVeeHkH2f9AIGD8qY9FxOQgg8kfYgbrmMUmDRcrrhTp6Agpu23n3rKXzxG7c2v6ByNXtR14XAzcHvPdxppJUZVCP38iaKF7fBPe6s1DTzCgNGbem4Xjh4kV0e_3G0EiJrnrBCkDSLWP1mO7uqkwQLHuJqg2p_vk-WqMoqctNZrmx65TDGSChr6wmFrgcrbtLoVjPiTrwmFAB9YAWtP5cMrUZszg7EJy-QzIQY3CrqGA7IOsHSp4WKYIbFbr23AmUoFyITY2Zz2t6QX4JTLGoZiA5YIp49qcNsH5SBgDfTE8Qf6B7Wi094GKUAkQ8IBYyz6Z6Njbg5mktebUzqXDm4I1WmdxZqXbS7bBZw7Gm92-QCUz1rd99ccRdIic-xo5yjSedO8QAogEGutn7YKKPFk3wLPMKx39qY2PMKsVyhoMt3UcZRLuZgOvUZ7sezXlaorKuJAIBYOc_AnupdgfqvKmhR-YHxyj97KCzVqv9X5edR0Nhvoj8ankaVjnCuix1SP3SGCw-ix7NsQzyilM8BfSUIEb-lrmLvcsVlyTLghHqBBk3JS6WxK1sOpl3ui_EbVsXieqNofYKc8nN2x9ugS9phNBsc8Dbuea7SuagAGxg0lZMed-2nIAhGfPX5-MA-ePEX5EL5v3zYajsdo-AmNe5AUzQWzmWA2u_J15DlU1m5QU9XF5hzrbc2f52i5bJ3HAR9Qf4zlABrEZko6aZ3ivtwT_aS36bumqpD09rN0VNyxE4V?></g></svg>