
<?plantuml 1.2026.2?><svg xmlns="http://www.w3.org/2000/svg" xmlns:xlink="http://www.w3.org/1999/xlink" contentStyleType="text/css" data-diagram-type="SEQUENCE" height="1355px" preserveAspectRatio="none" style="width:777px;height:1355px;background:#FFFFFF;" version="1.1" viewBox="0 0 777 1355" width="777px" zoomAndPan="magnify"><title>Sekven&#269;n&#237; diagram - &#381;ivotn&#237; cyklus turnaje</title><defs/><g><text fill="#000000" font-family="Arial" font-size="14" font-weight="bold" lengthAdjust="spacing" textLength="338.208" x="215.7727" y="27.9951">Sekven&#269;n&#237; diagram - &#381;ivotn&#237; cyklus turnaje</text><rect fill="none" height="177.6016" style="stroke:#000000;stroke-width:1.5;" width="750.7534" x="10" y="861.7813"/><g class="participant-lifeline" data-entity-uid="part1" data-qualified-name="Player" id="part1-lifeline"><g><title>Hr..</title><rect fill="#000000" fill-opacity="0.00000" height="1155.7188" width="8" x="35.2798" y="118.5938"/><line style="stroke:#181818;stroke-width:0.5;stroke-dasharray:5,5;" x1="39" x2="39" y1="118.5938" y2="1274.3125"/></g></g><g class="participant-lifeline" data-entity-uid="part2" data-qualified-name="Org" id="part2-lifeline"><g><title>Organiz.tor</title><rect fill="#000000" fill-opacity="0.00000" height="1155.7188" width="8" x="108.9307" y="118.5938"/><line style="stroke:#181818;stroke-width:0.5;stroke-dasharray:5,5;" x1="112.5596" x2="112.5596" y1="118.5938" y2="1274.3125"/></g></g><g class="participant-lifeline" data-entity-uid="part3" data-qualified-name="Sys" id="part3-lifeline"><g><title>Syst.m</title><rect fill="#000000" fill-opacity="0.00000" height="1155.7188" width="8" x="373.7734" y="118.5938"/><line style="stroke:#181818;stroke-width:0.5;stroke-dasharray:5,5;" x1="377.6704" x2="377.6704" y1="118.5938" y2="1274.3125"/></g></g><g class="participant-lifeline" data-entity-uid="part4" data-qualified-name="DB" id="part4-lifeline"><g><title>Datab.ze</title><rect fill="#000000" fill-opacity="0.00000" height="1155.7188" width="8" x="710.3257" y="118.5938"/><line style="stroke:#181818;stroke-width:0.5;stroke-dasharray:5,5;" x1="713.8979" x2="713.8979" y1="118.5938" y2="1274.3125"/></g></g><g class="participant participant-head" data-entity-uid="part1" data-qualified-name="Player" id="part1-head"><text fill="#000000" font-family="Arial" font-size="14" lengthAdjust="spacing" textLength="32.5596" x="20" y="115.292">Hr&#225;&#269;</text><ellipse cx="39.2798" cy="50.7969" fill="#E9ECEF" rx="8" ry="8" style="stroke:#343A40;stroke-width:0.5;"/><path d="M39.2798,58.7969 L39.2798,85.7969 M26.2798,66.7969 L52.2798,66.7969 M39.2798,85.7969 L26.2798,100.7969 M39.2798,85.7969 L52.2798,100.7969" fill="none" style="stroke:#343A40;stroke-width:0.5;"/></g><g class="participant participant-tail" data-entity-uid="part1" data-qualified-name="Player" id="part1-tail"><text fill="#000000" font-family="Arial" font-size="14" lengthAdjust="spacing" textLength="32.5596" x="20" y="1286.3076">Hr&#225;&#269;</text><ellipse cx="39.2798" cy="1298.1094" fill="#E9ECEF" rx="8" ry="8" style="stroke:#343A40;stroke-width:0.5;"/><path d="M39.2798,1306.1094 L39.2798,1333.1094 M26.2798,1314.1094 L52.2798,1314.1094 M39.2798,1333.1094 L26.2798,1348.1094 M39.2798,1333.1094 L52.2798,1348.1094" fill="none" style="stroke:#343A40;stroke-width:0.5;"/></g><g class="participant participant-head" data-entity-uid="part2" data-qualified-name="Org" id="part2-head"><text fill="#000000" font-family="Arial" font-size="14" lengthAdjust="spacing" textLength="82.7422" x="68.5596" y="115.292">Organiz&#225;tor</text><ellipse cx="112.9307" cy="50.7969" fill="#E9ECEF" rx="8" ry="8" style="stroke:#343A40;stroke-width:0.5;"/><path d="M112.9307,58.7969 L112.9307,85.7969 M99.9307,66.7969 L125.9307,66.7969 M112.9307,85.7969 L99.9307,100.7969 M112.9307,85.7969 L125.9307,100.7969" fill="none" style="stroke:#343A40;stroke-width:0.5;"/></g><g class="participant participant-tail" data-entity-uid="part2" data-qualified-name="Org" id="part2-tail"><text fill="#000000" font-family="Arial" font-size="14" lengthAdjust="spacing" textLength="82.7422" x="68.5596" y="1286.3076">Organiz&#225;tor</text><ellipse cx="112.9307" cy="1298.1094" fill="#E9ECEF" rx="8" ry="8" style="stroke:#343A40;stroke-width:0.5;"/><path d="M112.9307,1306.1094 L112.9307,1333.1094 M99.9307,1314.1094 L125.9307,1314.1094 M112.9307,1333.1094 L99.9307,1348.1094 M112.9307,1333.1094 L125.9307,1348.1094" fill="none" style="stroke:#343A40;stroke-width:0.5;"/></g><g class="participant participant-head" data-entity-uid="part3" data-qualified-name="Sys" id="part3-head"><rect fill="#E7F5FF" height="30.2969" rx="2.5" ry="2.5" style="stroke:#1864AB;stroke-width:0.5;" width="66.2061" x="344.6704" y="87.2969"/><text fill="#000000" font-family="Arial" font-size="14" lengthAdjust="spacing" textLength="52.2061" x="351.6704" y="107.292">Syst&#233;m</text></g><g class="participant participant-tail" data-entity-uid="part3" data-qualified-name="Sys" id="part3-tail"><rect fill="#E7F5FF" height="30.2969" rx="2.5" ry="2.5" style="stroke:#1864AB;stroke-width:0.5;" width="66.2061" x="344.6704" y="1273.3125"/><text fill="#000000" font-family="Arial" font-size="14" lengthAdjust="spacing" textLength="52.2061" x="351.6704" y="1293.3076">Syst&#233;m</text></g><g class="participant participant-head" data-entity-uid="part4" data-qualified-name="DB" id="part4-head"><text fill="#000000" font-family="Arial" font-size="14" lengthAdjust="spacing" textLength="66.8555" x="677.8979" y="115.292">Datab&#225;ze</text><path d="M696.3257,66.2969 C696.3257,56.2969 714.3257,56.2969 714.3257,56.2969 C714.3257,56.2969 732.3257,56.2969 732.3257,66.2969 L732.3257,92.2969 C732.3257,102.2969 714.3257,102.2969 714.3257,102.2969 C714.3257,102.2969 696.3257,102.2969 696.3257,92.2969 L696.3257,66.2969" fill="#FFF3CD" style="stroke:#181818;stroke-width:0.5;"/><path d="M696.3257,66.2969 C696.3257,76.2969 714.3257,76.2969 714.3257,76.2969 C714.3257,76.2969 732.3257,76.2969 732.3257,66.2969" fill="none" style="stroke:#181818;stroke-width:0.5;"/></g><g class="participant participant-tail" data-entity-uid="part4" data-qualified-name="DB" id="part4-tail"><text fill="#000000" font-family="Arial" font-size="14" lengthAdjust="spacing" textLength="66.8555" x="677.8979" y="1286.3076">Datab&#225;ze</text><path d="M696.3257,1299.6094 C696.3257,1289.6094 714.3257,1289.6094 714.3257,1289.6094 C714.3257,1289.6094 732.3257,1289.6094 732.3257,1299.6094 L732.3257,1325.6094 C732.3257,1335.6094 714.3257,1335.6094 714.3257,1335.6094 C714.3257,1335.6094 696.3257,1335.6094 696.3257,1325.6094 L696.3257,1299.6094" fill="#FFF3CD" style="stroke:#181818;stroke-width:0.5;"/><path d="M696.3257,1299.6094 C696.3257,1309.6094 714.3257,1309.6094 714.3257,1309.6094 C714.3257,1309.6094 732.3257,1309.6094 732.3257,1299.6094" fill="none" style="stroke:#181818;stroke-width:0.5;"/></g><rect fill="#EEEEEE" height="3" style="stroke:#EEEEEE;stroke-width:1;" width="770.7534" x="0" y="149.1602"/><line style="stroke:#000000;stroke-width:1;" x1="0" x2="770.7534" y1="149.1602" y2="149.1602"/><line style="stroke:#000000;stroke-width:1;" x1="0" x2="770.7534" y1="152.1602" y2="152.1602"/><rect fill="#EEEEEE" height="23.1328" style="stroke:#000000;stroke-width:2;" width="138.3633" x="316.1951" y="138.5938"/><text fill="#000000" font-family="Arial" font-size="13" font-weight="bold" lengthAdjust="spacing" textLength="119.8374" x="322.1951" y="154.6606">P&#345;&#237;prava turnaje</text><g class="message" data-entity-1="part1" data-entity-2="part3" id="msg1"><polygon fill="#495057" points="365.7734,188.8594,375.7734,192.8594,365.7734,196.8594,369.7734,192.8594" style="stroke:#495057;stroke-width:1;"/><line style="stroke:#495057;stroke-width:1;" x1="39.2798" x2="371.7734" y1="192.8594" y2="192.8594"/><text fill="#000000" font-family="Arial" font-size="13" lengthAdjust="spacing" textLength="215.6108" x="46.2798" y="187.7935">Registrace (jm&#233;no, e-mail, heslo)</text></g><g class="message" data-entity-1="part3" data-entity-2="part4" id="msg2"><polygon fill="#495057" points="702.3257,217.9922,712.3257,221.9922,702.3257,225.9922,706.3257,221.9922" style="stroke:#495057;stroke-width:1;"/><line style="stroke:#495057;stroke-width:1;" x1="377.7734" x2="708.3257" y1="221.9922" y2="221.9922"/><text fill="#000000" font-family="Arial" font-size="13" lengthAdjust="spacing" textLength="99.7852" x="384.7734" y="216.9263">Ulo&#382;it u&#382;ivatele</text></g><g class="message" data-entity-1="part3" data-entity-2="part1" id="msg3"><polygon fill="#495057" points="50.2798,247.125,40.2798,251.125,50.2798,255.125,46.2798,251.125" style="stroke:#495057;stroke-width:1;"/><line style="stroke:#495057;stroke-width:1;stroke-dasharray:2,2;" x1="44.2798" x2="376.7734" y1="251.125" y2="251.125"/><text fill="#000000" font-family="Arial" font-size="13" lengthAdjust="spacing" textLength="110.3159" x="56.2798" y="246.0591">Ov&#283;&#345;ovac&#237; e-mail</text></g><g class="message" data-entity-1="part1" data-entity-2="part3" id="msg4"><polygon fill="#495057" points="365.7734,276.2578,375.7734,280.2578,365.7734,284.2578,369.7734,280.2578" style="stroke:#495057;stroke-width:1;"/><line style="stroke:#495057;stroke-width:1;" x1="39.2798" x2="371.7734" y1="280.2578" y2="280.2578"/><text fill="#000000" font-family="Arial" font-size="13" lengthAdjust="spacing" textLength="63.2354" x="46.2798" y="275.1919">P&#345;ihl&#225;&#353;en&#237;</text></g><g class="message" data-entity-1="part3" data-entity-2="part4" id="msg5"><polygon fill="#495057" points="702.3257,305.3906,712.3257,309.3906,702.3257,313.3906,706.3257,309.3906" style="stroke:#495057;stroke-width:1;"/><line style="stroke:#495057;stroke-width:1;" x1="377.7734" x2="708.3257" y1="309.3906" y2="309.3906"/><text fill="#000000" font-family="Arial" font-size="13" lengthAdjust="spacing" textLength="162.481" x="384.7734" y="304.3247">Ov&#283;&#345;it p&#345;ihla&#353;ovac&#237; &#250;daje</text></g><g class="message" data-entity-1="part3" data-entity-2="part1" id="msg6"><polygon fill="#495057" points="50.2798,334.5234,40.2798,338.5234,50.2798,342.5234,46.2798,338.5234" style="stroke:#495057;stroke-width:1;"/><line style="stroke:#495057;stroke-width:1;stroke-dasharray:2,2;" x1="44.2798" x2="376.7734" y1="338.5234" y2="338.5234"/><text fill="#000000" font-family="Arial" font-size="13" lengthAdjust="spacing" textLength="136.0176" x="56.2798" y="333.4575">P&#345;ihl&#225;&#353;en (role: hr&#225;&#269;)</text></g><g class="message" data-entity-1="part2" data-entity-2="part3" id="msg7"><polygon fill="#495057" points="365.7734,363.6563,375.7734,367.6563,365.7734,371.6563,369.7734,367.6563" style="stroke:#495057;stroke-width:1;"/><line style="stroke:#495057;stroke-width:1;" x1="112.9307" x2="371.7734" y1="367.6563" y2="367.6563"/><text fill="#000000" font-family="Arial" font-size="13" lengthAdjust="spacing" textLength="240.8428" x="119.9307" y="362.5903">Vytvo&#345;it turnaj (syst&#233;m, tempo, kola)</text></g><g class="message" data-entity-1="part3" data-entity-2="part4" id="msg8"><polygon fill="#495057" points="702.3257,392.7891,712.3257,396.7891,702.3257,400.7891,706.3257,396.7891" style="stroke:#495057;stroke-width:1;"/><line style="stroke:#495057;stroke-width:1;" x1="377.7734" x2="708.3257" y1="396.7891" y2="396.7891"/><text fill="#000000" font-family="Arial" font-size="13" lengthAdjust="spacing" textLength="79.2441" x="384.7734" y="391.7231">Ulo&#382;it turnaj</text></g><g class="message" data-entity-1="part3" data-entity-2="part2" id="msg9"><polygon fill="#495057" points="123.9307,421.9219,113.9307,425.9219,123.9307,429.9219,119.9307,425.9219" style="stroke:#495057;stroke-width:1;"/><line style="stroke:#495057;stroke-width:1;stroke-dasharray:2,2;" x1="117.9307" x2="376.7734" y1="425.9219" y2="425.9219"/><text fill="#000000" font-family="Arial" font-size="13" lengthAdjust="spacing" textLength="103.1875" x="129.9307" y="420.856">Turnaj vytvo&#345;en</text></g><g class="message" data-entity-1="part1" data-entity-2="part3" id="msg10"><polygon fill="#495057" points="365.7734,451.0547,375.7734,455.0547,365.7734,459.0547,369.7734,455.0547" style="stroke:#495057;stroke-width:1;"/><line style="stroke:#495057;stroke-width:1;" x1="39.2798" x2="371.7734" y1="455.0547" y2="455.0547"/><text fill="#000000" font-family="Arial" font-size="13" lengthAdjust="spacing" textLength="141.9653" x="46.2798" y="449.9888">P&#345;ihl&#225;sit se do turnaje</text></g><g class="message" data-entity-1="part3" data-entity-2="part4" id="msg11"><polygon fill="#495057" points="702.3257,480.1875,712.3257,484.1875,702.3257,488.1875,706.3257,484.1875" style="stroke:#495057;stroke-width:1;"/><line style="stroke:#495057;stroke-width:1;" x1="377.7734" x2="708.3257" y1="484.1875" y2="484.1875"/><text fill="#000000" font-family="Arial" font-size="13" lengthAdjust="spacing" textLength="181.27" x="384.7734" y="479.1216">Ulo&#382;it p&#345;ihl&#225;&#353;ku (stav: &#269;ek&#225;)</text></g><g class="message" data-entity-1="part2" data-entity-2="part3" id="msg12"><polygon fill="#495057" points="365.7734,509.3203,375.7734,513.3203,365.7734,517.3203,369.7734,513.3203" style="stroke:#495057;stroke-width:1;"/><line style="stroke:#495057;stroke-width:1;" x1="112.9307" x2="371.7734" y1="513.3203" y2="513.3203"/><text fill="#000000" font-family="Arial" font-size="13" lengthAdjust="spacing" textLength="156.146" x="119.9307" y="508.2544">Schv&#225;lit p&#345;ihl&#225;&#353;ku hr&#225;&#269;e</text></g><g class="message" data-entity-1="part3" data-entity-2="part4" id="msg13"><polygon fill="#495057" points="702.3257,538.4531,712.3257,542.4531,702.3257,546.4531,706.3257,542.4531" style="stroke:#495057;stroke-width:1;"/><line style="stroke:#495057;stroke-width:1;" x1="377.7734" x2="708.3257" y1="542.4531" y2="542.4531"/><text fill="#000000" font-family="Arial" font-size="13" lengthAdjust="spacing" textLength="260.1333" x="384.7734" y="537.3872">Aktualizovat p&#345;ihl&#225;&#353;ku (stav: schv&#225;lena)</text></g><rect fill="#EEEEEE" height="3" style="stroke:#EEEEEE;stroke-width:1;" width="770.7534" x="0" y="571.0195"/><line style="stroke:#000000;stroke-width:1;" x1="0" x2="770.7534" y1="571.0195" y2="571.0195"/><line style="stroke:#000000;stroke-width:1;" x1="0" x2="770.7534" y1="574.0195" y2="574.0195"/><rect fill="#EEEEEE" height="23.1328" style="stroke:#000000;stroke-width:2;" width="106.4282" x="332.1626" y="560.4531"/><text fill="#000000" font-family="Arial" font-size="13" font-weight="bold" lengthAdjust="spacing" textLength="87.9023" x="338.1626" y="576.52">Pr&#367;b&#283;h kola</text><g class="message" data-entity-1="part2" data-entity-2="part3" id="msg14"><polygon fill="#495057" points="365.7734,610.7188,375.7734,614.7188,365.7734,618.7188,369.7734,614.7188" style="stroke:#495057;stroke-width:1;"/><line style="stroke:#495057;stroke-width:1;" x1="112.9307" x2="371.7734" y1="614.7188" y2="614.7188"/><text fill="#000000" font-family="Arial" font-size="13" lengthAdjust="spacing" textLength="113.4009" x="119.9307" y="609.6528">Generovat kolo N</text></g><g class="message" data-entity-1="part3" data-entity-2="part4" id="msg15"><polygon fill="#495057" points="702.3257,639.8516,712.3257,643.8516,702.3257,647.8516,706.3257,643.8516" style="stroke:#495057;stroke-width:1;"/><line style="stroke:#495057;stroke-width:1;" x1="377.7734" x2="708.3257" y1="643.8516" y2="643.8516"/><text fill="#000000" font-family="Arial" font-size="13" lengthAdjust="spacing" textLength="191.7754" x="384.7734" y="638.7856">Na&#269;&#237;st hr&#225;&#269;e a historii z&#225;pas&#367;</text></g><g class="message" data-entity-1="part3" data-entity-2="part3" id="msg16"><line style="stroke:#495057;stroke-width:1;" x1="377.7734" x2="419.7734" y1="688.1172" y2="688.1172"/><line style="stroke:#495057;stroke-width:1;" x1="419.7734" x2="419.7734" y1="688.1172" y2="701.1172"/><line style="stroke:#495057;stroke-width:1;" x1="378.7734" x2="419.7734" y1="701.1172" y2="701.1172"/><polygon fill="#495057" points="388.7734,697.1172,378.7734,701.1172,388.7734,705.1172,384.7734,701.1172" style="stroke:#495057;stroke-width:1;"/><text fill="#000000" font-family="Arial" font-size="13" lengthAdjust="spacing" textLength="122.8716" x="384.7734" y="667.9185">Vypo&#269;&#237;tat p&#225;rov&#225;n&#237;</text><text fill="#000000" font-family="Arial" font-size="13" lengthAdjust="spacing" textLength="163.0586" x="384.7734" y="683.0513">(Swiss / ka&#382;d&#253; s ka&#382;d&#253;m)</text></g><g class="message" data-entity-1="part3" data-entity-2="part4" id="msg17"><polygon fill="#495057" points="702.3257,726.25,712.3257,730.25,702.3257,734.25,706.3257,730.25" style="stroke:#495057;stroke-width:1;"/><line style="stroke:#495057;stroke-width:1;" x1="377.7734" x2="708.3257" y1="730.25" y2="730.25"/><text fill="#000000" font-family="Arial" font-size="13" lengthAdjust="spacing" textLength="129.4985" x="384.7734" y="725.1841">Ulo&#382;it kolo a z&#225;pasy</text></g><g class="message" data-entity-1="part2" data-entity-2="part3" id="msg18"><polygon fill="#495057" points="365.7734,755.3828,375.7734,759.3828,365.7734,763.3828,369.7734,759.3828" style="stroke:#495057;stroke-width:1;"/><line style="stroke:#495057;stroke-width:1;" x1="112.9307" x2="371.7734" y1="759.3828" y2="759.3828"/><text fill="#000000" font-family="Arial" font-size="13" lengthAdjust="spacing" textLength="89.6797" x="119.9307" y="754.3169">Zve&#345;ejnit kolo</text></g><g class="message" data-entity-1="part3" data-entity-2="part1" id="msg19"><polygon fill="#495057" points="50.2798,784.5156,40.2798,788.5156,50.2798,792.5156,46.2798,788.5156" style="stroke:#495057;stroke-width:1;"/><line style="stroke:#495057;stroke-width:1;stroke-dasharray:2,2;" x1="44.2798" x2="376.7734" y1="788.5156" y2="788.5156"/><text fill="#000000" font-family="Arial" font-size="13" lengthAdjust="spacing" textLength="198.269" x="56.2798" y="783.4497">Notifikace (st&#367;l &#269;., barva figur)</text></g><g class="message" data-entity-1="part1" data-entity-2="part3" id="msg20"><polygon fill="#495057" points="365.7734,813.6484,375.7734,817.6484,365.7734,821.6484,369.7734,817.6484" style="stroke:#495057;stroke-width:1;"/><line style="stroke:#495057;stroke-width:1;" x1="39.2798" x2="371.7734" y1="817.6484" y2="817.6484"/><text fill="#000000" font-family="Arial" font-size="13" lengthAdjust="spacing" textLength="211.7896" x="46.2798" y="812.5825">Zadat v&#253;sledek (1-0 / 0-1 / &#189;-&#189;)</text></g><g class="message" data-entity-1="part3" data-entity-2="part4" id="msg21"><polygon fill="#495057" points="702.3257,842.7813,712.3257,846.7813,702.3257,850.7813,706.3257,846.7813" style="stroke:#495057;stroke-width:1;"/><line style="stroke:#495057;stroke-width:1;" x1="377.7734" x2="708.3257" y1="846.7813" y2="846.7813"/><text fill="#000000" font-family="Arial" font-size="13" lengthAdjust="spacing" textLength="228.6934" x="384.7734" y="841.7153">Ulo&#382;it v&#253;sledek (&#269;ek&#225; na potvrzen&#237;)</text></g><path d="M10,861.7813 L74.4429,861.7813 L74.4429,868.9141 L64.4429,878.9141 L10,878.9141 L10,861.7813" fill="#EEEEEE" style="stroke:#000000;stroke-width:1.5;"/><rect fill="none" height="177.6016" style="stroke:#000000;stroke-width:1.5;" width="750.7534" x="10" y="861.7813"/><text fill="#000000" font-family="Arial" font-size="13" font-weight="bold" lengthAdjust="spacing" textLength="19.4429" x="25" y="874.8481">alt</text><text fill="#000000" font-family="Arial" font-size="11" font-weight="bold" lengthAdjust="spacing" textLength="185.8291" x="89.4429" y="873.9917">[Druh&#253; hr&#225;&#269; potvrd&#237; v&#253;sledek]</text><g class="message" data-entity-1="part1" data-entity-2="part3" id="msg22"><polygon fill="#495057" points="365.7734,896.0469,375.7734,900.0469,365.7734,904.0469,369.7734,900.0469" style="stroke:#495057;stroke-width:1;"/><line style="stroke:#495057;stroke-width:1;" x1="39.2798" x2="371.7734" y1="900.0469" y2="900.0469"/><text fill="#000000" font-family="Arial" font-size="13" lengthAdjust="spacing" textLength="112.5693" x="46.2798" y="894.981">Potvrdit v&#253;sledek</text></g><g class="message" data-entity-1="part3" data-entity-2="part4" id="msg23"><polygon fill="#495057" points="702.3257,925.1797,712.3257,929.1797,702.3257,933.1797,706.3257,929.1797" style="stroke:#495057;stroke-width:1;"/><line style="stroke:#495057;stroke-width:1;" x1="377.7734" x2="708.3257" y1="929.1797" y2="929.1797"/><text fill="#000000" font-family="Arial" font-size="13" lengthAdjust="spacing" textLength="211.2183" x="384.7734" y="924.1138">Ozna&#269;it v&#253;sledek jako potvrzen&#253;</text></g><line style="stroke:#000000;stroke-width:1;stroke-dasharray:2,2;" x1="10" x2="760.7534" y1="938.1797" y2="938.1797"/><text fill="#000000" font-family="Arial" font-size="11" font-weight="bold" lengthAdjust="spacing" textLength="196.335" x="15" y="948.3901">[Protest - zas&#225;hne Organiz&#225;tor]</text><g class="message" data-entity-1="part1" data-entity-2="part3" id="msg24"><polygon fill="#495057" points="365.7734,969.1172,375.7734,973.1172,365.7734,977.1172,369.7734,973.1172" style="stroke:#495057;stroke-width:1;"/><line style="stroke:#495057;stroke-width:1;" x1="39.2798" x2="371.7734" y1="973.1172" y2="973.1172"/><text fill="#000000" font-family="Arial" font-size="13" lengthAdjust="spacing" textLength="87.7563" x="46.2798" y="968.0513">Podat protest</text></g><g class="message" data-entity-1="part2" data-entity-2="part3" id="msg25"><polygon fill="#495057" points="365.7734,998.25,375.7734,1002.25,365.7734,1006.25,369.7734,1002.25" style="stroke:#495057;stroke-width:1;"/><line style="stroke:#495057;stroke-width:1;" x1="112.9307" x2="371.7734" y1="1002.25" y2="1002.25"/><text fill="#000000" font-family="Arial" font-size="13" lengthAdjust="spacing" textLength="164.8931" x="119.9307" y="997.1841">Rozhodnout (kontumace)</text></g><g class="message" data-entity-1="part3" data-entity-2="part4" id="msg26"><polygon fill="#495057" points="702.3257,1027.3828,712.3257,1031.3828,702.3257,1035.3828,706.3257,1031.3828" style="stroke:#495057;stroke-width:1;"/><line style="stroke:#495057;stroke-width:1;" x1="377.7734" x2="708.3257" y1="1031.3828" y2="1031.3828"/><text fill="#000000" font-family="Arial" font-size="13" lengthAdjust="spacing" textLength="163.5664" x="384.7734" y="1026.3169">Ulo&#382;it opraven&#253; v&#253;sledek</text></g><g class="message" data-entity-1="part3" data-entity-2="part4" id="msg27"><polygon fill="#495057" points="702.3257,1063.5156,712.3257,1067.5156,702.3257,1071.5156,706.3257,1067.5156" style="stroke:#495057;stroke-width:1;"/><line style="stroke:#495057;stroke-width:1;" x1="377.7734" x2="708.3257" y1="1067.5156" y2="1067.5156"/><text fill="#000000" font-family="Arial" font-size="13" lengthAdjust="spacing" textLength="312.5522" x="384.7734" y="1062.4497">P&#345;epo&#269;&#237;tat po&#345;ad&#237; (Buchholz, Sonneborn-Berger)</text></g><g class="message" data-entity-1="part3" data-entity-2="part1" id="msg28"><polygon fill="#495057" points="50.2798,1092.6484,40.2798,1096.6484,50.2798,1100.6484,46.2798,1096.6484" style="stroke:#495057;stroke-width:1;"/><line style="stroke:#495057;stroke-width:1;stroke-dasharray:2,2;" x1="44.2798" x2="376.7734" y1="1096.6484" y2="1096.6484"/><text fill="#000000" font-family="Arial" font-size="13" lengthAdjust="spacing" textLength="180.4956" x="56.2798" y="1091.5825">Zobrazit pr&#367;b&#283;&#382;nou tabulku</text></g><rect fill="#EEEEEE" height="3" style="stroke:#EEEEEE;stroke-width:1;" width="770.7534" x="0" y="1125.2148"/><line style="stroke:#000000;stroke-width:1;" x1="0" x2="770.7534" y1="1125.2148" y2="1125.2148"/><line style="stroke:#000000;stroke-width:1;" x1="0" x2="770.7534" y1="1128.2148" y2="1128.2148"/><rect fill="#EEEEEE" height="23.1328" style="stroke:#000000;stroke-width:2;" width="140.5405" x="315.1064" y="1114.6484"/><text fill="#000000" font-family="Arial" font-size="13" font-weight="bold" lengthAdjust="spacing" textLength="122.0146" x="321.1064" y="1130.7153">Uzav&#345;en&#237; turnaje</text><g class="message" data-entity-1="part2" data-entity-2="part3" id="msg29"><polygon fill="#495057" points="365.7734,1164.9141,375.7734,1168.9141,365.7734,1172.9141,369.7734,1168.9141" style="stroke:#495057;stroke-width:1;"/><line style="stroke:#495057;stroke-width:1;" x1="112.9307" x2="371.7734" y1="1168.9141" y2="1168.9141"/><text fill="#000000" font-family="Arial" font-size="13" lengthAdjust="spacing" textLength="88.6831" x="119.9307" y="1163.8481">Uzav&#345;&#237;t turnaj</text></g><g class="message" data-entity-1="part3" data-entity-2="part4" id="msg30"><polygon fill="#495057" points="702.3257,1194.0469,712.3257,1198.0469,702.3257,1202.0469,706.3257,1198.0469" style="stroke:#495057;stroke-width:1;"/><line style="stroke:#495057;stroke-width:1;" x1="377.7734" x2="708.3257" y1="1198.0469" y2="1198.0469"/><text fill="#000000" font-family="Arial" font-size="13" lengthAdjust="spacing" textLength="228.9346" x="384.7734" y="1192.981">Vypo&#269;&#237;tat fin&#225;ln&#237; po&#345;ad&#237; a tiebreaky</text></g><g class="message" data-entity-1="part2" data-entity-2="part3" id="msg31"><polygon fill="#495057" points="365.7734,1223.1797,375.7734,1227.1797,365.7734,1231.1797,369.7734,1227.1797" style="stroke:#495057;stroke-width:1;"/><line style="stroke:#495057;stroke-width:1;" x1="112.9307" x2="371.7734" y1="1227.1797" y2="1227.1797"/><text fill="#000000" font-family="Arial" font-size="13" lengthAdjust="spacing" textLength="132.6406" x="119.9307" y="1222.1138">Exportovat v&#253;sledky</text></g><g class="message" data-entity-1="part3" data-entity-2="part2" id="msg32"><polygon fill="#495057" points="123.9307,1252.3125,113.9307,1256.3125,123.9307,1260.3125,119.9307,1256.3125" style="stroke:#495057;stroke-width:1;"/><line style="stroke:#495057;stroke-width:1;stroke-dasharray:2,2;" x1="117.9307" x2="376.7734" y1="1256.3125" y2="1256.3125"/><text fill="#000000" font-family="Arial" font-size="13" lengthAdjust="spacing" textLength="116.6318" x="129.9307" y="1251.2466">Soubor CSV / PGN</text></g><?plantuml-src TLNBRk985DtxAwx81gGmaoZ9z3HIHe84UbOqQgPx4StcWYkuugBAKrLs3upc4_81hLvvsOie-v78eet_QsxPGDmOM5X-t3hdt7CVc93B23NEmMVt60ixKD8ESSwWgpaAp-o-6_PNpEIKmJyUG7TgbUufxJDzeuJIKFvEBYulkfTdkm2SXZEjOkblWqxwR_it_G45Z51RFkKHIbl5EJd_zPVBRcylO0_dfFzcS3LmA5sjrUUgWesEoxTNPrTll7yzpt8h63J6B4oON3_Ax0byZZENKHlo5K-KTU-cYr341coi9JwmXkUXIm0Ql-iiNJysgk1eO2HmmVGsvhsUeUJBBAMdnZQ4NdhHQmgaO65izctUs7odHzWbugF52HhIUUlkidJ9Ta2tFPVGO32ukBdrlEjh6ELVigT8Ou9RkN1zxNcb9cZ_La1tu0ERSMCrKiMQ3_FicrIdmDfpvE8K0cQ4Qdc51d1774a7FWgLlt0BCLqJj4omJKYRGZRu7NYVhB_cNrI2K_AjHAopaqWUY2pDKqRsrfXA3AAAYZZCqmrUzfzF2HsYhI92Kol1EX0KrMbv7hczmI_fForieWg2qY9ecjB-Kx1i7f4LeH9ut87oL4M68-Z07oLOKg8pUJnlGo1KJrzjQtIKAjhb5SOaqsBIWVKZ2xEqLKjhF0sIB1NxfqeRwXJTqCOe-9AyFSnZIZmcoOgYjNJ-F5b_3GftYgxQL_2EIQOBF0fHCAnn3d7zc3qPknK5207reTAS0ur8X2P_hXpQbYjIxfXrEhEK2BAKskPFsHn_viR0pn1Y_k9dAp3Rk_dnuXNASCEsgALmbp2gtOFSH1xgjQ6o_9w7nUmOcpyBgiXFfp11JKDtpsUnRjLBVuSqnf1aAoEOpq9edhVFIFbP-voktrVjxwlZaYkdojg3H8YKJVJIpG-neR1mg-E0F2YTBJ_xD3ExmsvhxlTZ4LHbeA3QD2ubLUq76GyOgbS1Auy9wkQHLfPHQTkmH9EbWMHGtNq7wPqdKNcElk_NueDQ1igNAhRG3EcV9vwJvwq34hT6ARVudA9AGapwNirP6aHMQIeQLtHUDNlnD0YKM9x2M4d99ahBTe_f6TEjGvrmfoOQbsxWoj78NqWiq8wEHHWNC_DnYOdR1GHUNSVxcPPXfER7tV8gk3e3zrpIM3h8dN1QzfnDDCEmtj7zloEbRJ6L6rSeQ7ztZLLCoSBD-1Eru-ZTy7y0?></g></svg>