
<?plantuml 1.2026.2?><svg xmlns="http://www.w3.org/2000/svg" xmlns:xlink="http://www.w3.org/1999/xlink" contentStyleType="text/css" data-diagram-type="CLASS" height="993px" preserveAspectRatio="none" style="width:1122px;height:993px;background:#FFFFFF;" version="1.1" viewBox="0 0 1122 993" width="1122px" zoomAndPan="magnify"><title>ER Diagram - IS &#352;achov&#233; z&#225;pasy</title><defs/><g><g class="title" data-source-line="4"><text fill="#000000" font-family="Arial" font-size="14" font-weight="bold" lengthAdjust="spacing" textLength="253.2031" x="427.5938" y="22.9951">ER Diagram - IS &#352;achov&#233; z&#225;pasy</text></g><!--class user--><g class="entity" data-qualified-name="user" data-source-line="6" id="ent0002"><rect fill="#F1F1F1" height="194.6719" rx="2.5" ry="2.5" style="stroke:#181818;stroke-width:0.5;" width="399.4746" x="571" y="44.2969"/><ellipse cx="738.3164" cy="60.2969" fill="#ADD1B2" rx="11" ry="11" style="stroke:#181818;stroke-width:1;"/><path d="M742.4258,66.2969 L734.707,66.2969 L734.707,53.9063 L742.4258,53.9063 L742.4258,56.0625 L737.1602,56.0625 L737.1602,58.7344 L741.9258,58.7344 L741.9258,60.8906 L737.1602,60.8906 L737.1602,64.1406 L742.4258,64.1406 L742.4258,66.2969 Z " fill="#000000"/><text fill="#000000" font-family="Arial" font-size="14" lengthAdjust="spacing" textLength="56.3418" x="758.8164" y="65.1436">U&#382;ivatel</text><line style="stroke:#181818;stroke-width:0.5;" x1="572" x2="969.4746" y1="76.2969" y2="76.2969"/><g data-visibility-modifier="IE_MANDATORY"><ellipse cx="582" cy="89.9453" fill="#000000" rx="3" ry="3" style="stroke:#000000;stroke-width:1;"/></g><text fill="#000000" font-family="Arial" font-size="14" lengthAdjust="spacing" textLength="101.001" x="591" y="93.292">id : UUID &#171;PK&#187;</text><line style="stroke:#181818;stroke-width:1;" x1="572" x2="969.4746" y1="100.5938" y2="100.5938"/><g data-visibility-modifier="IE_MANDATORY"><ellipse cx="582" cy="114.2422" fill="#000000" rx="3" ry="3" style="stroke:#000000;stroke-width:1;"/></g><text fill="#000000" font-family="Arial" font-size="14" lengthAdjust="spacing" textLength="98.9775" x="591" y="117.5889">jmeno : String</text><g data-visibility-modifier="IE_MANDATORY"><ellipse cx="582" cy="130.5391" fill="#000000" rx="3" ry="3" style="stroke:#000000;stroke-width:1;"/></g><text fill="#000000" font-family="Arial" font-size="14" lengthAdjust="spacing" textLength="94.0078" x="591" y="133.8857">email : String</text><g data-visibility-modifier="IE_MANDATORY"><ellipse cx="582" cy="146.8359" fill="#000000" rx="3" ry="3" style="stroke:#000000;stroke-width:1;"/></g><text fill="#000000" font-family="Arial" font-size="14" lengthAdjust="spacing" textLength="133.2529" x="591" y="150.1826">heslo_hash : String</text><g data-visibility-modifier="IE_MANDATORY"><ellipse cx="582" cy="163.1328" fill="#000000" rx="3" ry="3" style="stroke:#000000;stroke-width:1;"/></g><text fill="#000000" font-family="Arial" font-size="14" lengthAdjust="spacing" textLength="373.4746" x="591" y="166.4795">role : ENUM(host, hr&#225;&#269;, organiz&#225;tor, rozhod&#269;&#237;, admin)</text><text fill="#000000" font-family="Arial" font-size="14" lengthAdjust="spacing" textLength="145.4688" x="591" y="182.7764">elo_narodni : Integer</text><text fill="#000000" font-family="Arial" font-size="14" lengthAdjust="spacing" textLength="101.4932" x="591" y="199.0732">fide_id : String</text><text fill="#000000" font-family="Arial" font-size="14" lengthAdjust="spacing" textLength="85.1553" x="591" y="215.3701">klub : String</text><g data-visibility-modifier="IE_MANDATORY"><ellipse cx="582" cy="228.3203" fill="#000000" rx="3" ry="3" style="stroke:#000000;stroke-width:1;"/></g><text fill="#000000" font-family="Arial" font-size="14" lengthAdjust="spacing" textLength="127.5791" x="591" y="231.667">overeno : Boolean</text></g><!--class tournament--><g class="entity" data-qualified-name="tournament" data-source-line="19" id="ent0003"><rect fill="#F1F1F1" height="210.9688" rx="2.5" ry="2.5" style="stroke:#181818;stroke-width:0.5;" width="401.6895" x="315.5" y="299.2969"/><ellipse cx="489.8335" cy="315.2969" fill="#ADD1B2" rx="11" ry="11" style="stroke:#181818;stroke-width:1;"/><path d="M493.9429,321.2969 L486.2241,321.2969 L486.2241,308.9063 L493.9429,308.9063 L493.9429,311.0625 L488.6772,311.0625 L488.6772,313.7344 L493.4429,313.7344 L493.4429,315.8906 L488.6772,315.8906 L488.6772,319.1406 L493.9429,319.1406 L493.9429,321.2969 Z " fill="#000000"/><text fill="#000000" font-family="Arial" font-size="14" lengthAdjust="spacing" textLength="44.5225" x="510.3335" y="320.1436">Turnaj</text><line style="stroke:#181818;stroke-width:0.5;" x1="316.5" x2="716.1895" y1="331.2969" y2="331.2969"/><g data-visibility-modifier="IE_MANDATORY"><ellipse cx="326.5" cy="344.9453" fill="#000000" rx="3" ry="3" style="stroke:#000000;stroke-width:1;"/></g><text fill="#000000" font-family="Arial" font-size="14" lengthAdjust="spacing" textLength="101.001" x="335.5" y="348.292">id : UUID &#171;PK&#187;</text><line style="stroke:#181818;stroke-width:1;" x1="316.5" x2="716.1895" y1="355.5938" y2="355.5938"/><g data-visibility-modifier="IE_MANDATORY"><ellipse cx="326.5" cy="369.2422" fill="#000000" rx="3" ry="3" style="stroke:#000000;stroke-width:1;"/></g><text fill="#000000" font-family="Arial" font-size="14" lengthAdjust="spacing" textLength="97.0977" x="335.5" y="372.5889">nazev : String</text><g data-visibility-modifier="IE_MANDATORY"><ellipse cx="326.5" cy="385.5391" fill="#000000" rx="3" ry="3" style="stroke:#000000;stroke-width:1;"/></g><text fill="#000000" font-family="Arial" font-size="14" lengthAdjust="spacing" textLength="192.8828" x="335.5" y="388.8857">datum_zahajeni : DateTime</text><g data-visibility-modifier="IE_MANDATORY"><ellipse cx="326.5" cy="401.8359" fill="#000000" rx="3" ry="3" style="stroke:#000000;stroke-width:1;"/></g><text fill="#000000" font-family="Arial" font-size="14" lengthAdjust="spacing" textLength="123.7852" x="335.5" y="405.1826">kapacita : Integer</text><g data-visibility-modifier="IE_MANDATORY"><ellipse cx="326.5" cy="418.1328" fill="#000000" rx="3" ry="3" style="stroke:#000000;stroke-width:1;"/></g><text fill="#000000" font-family="Arial" font-size="14" lengthAdjust="spacing" textLength="246.8457" x="335.5" y="421.4795">system : ENUM(swiss, round_robin)</text><g data-visibility-modifier="IE_MANDATORY"><ellipse cx="326.5" cy="434.4297" fill="#000000" rx="3" ry="3" style="stroke:#000000;stroke-width:1;"/></g><text fill="#000000" font-family="Arial" font-size="14" lengthAdjust="spacing" textLength="257.0244" x="335.5" y="437.7764">tempo : ENUM(standard, rapid, blitz)</text><g data-visibility-modifier="IE_MANDATORY"><ellipse cx="326.5" cy="450.7266" fill="#000000" rx="3" ry="3" style="stroke:#000000;stroke-width:1;"/></g><text fill="#000000" font-family="Arial" font-size="14" lengthAdjust="spacing" textLength="130.792" x="335.5" y="454.0732">pocet_kol : Integer</text><text fill="#000000" font-family="Arial" font-size="14" lengthAdjust="spacing" textLength="121.6182" x="335.5" y="470.3701">tiebreaky : String</text><g data-visibility-modifier="IE_MANDATORY"><ellipse cx="326.5" cy="483.3203" fill="#000000" rx="3" ry="3" style="stroke:#000000;stroke-width:1;"/></g><text fill="#000000" font-family="Arial" font-size="14" lengthAdjust="spacing" textLength="375.6895" x="335.5" y="486.667">stav : ENUM(pl&#225;novan&#253;, registrace, prob&#237;h&#225;, uzav&#345;en)</text><text fill="#000000" font-family="Arial" font-size="14" lengthAdjust="spacing" textLength="187.8994" x="335.5" y="502.9639">organizator_id : UUID &#171;FK&#187;</text></g><!--class reg--><g class="entity" data-qualified-name="reg" data-source-line="33" id="ent0004"><rect fill="#F1F1F1" height="145.7813" rx="2.5" ry="2.5" style="stroke:#181818;stroke-width:0.5;" width="387.3135" x="7" y="586.2969"/><ellipse cx="164.7017" cy="602.2969" fill="#ADD1B2" rx="11" ry="11" style="stroke:#181818;stroke-width:1;"/><path d="M168.811,608.2969 L161.0923,608.2969 L161.0923,595.9063 L168.811,595.9063 L168.811,598.0625 L163.5454,598.0625 L163.5454,600.7344 L168.311,600.7344 L168.311,602.8906 L163.5454,602.8906 L163.5454,606.1406 L168.811,606.1406 L168.811,608.2969 Z " fill="#000000"/><text fill="#000000" font-family="Arial" font-size="14" lengthAdjust="spacing" textLength="63.4102" x="185.2017" y="607.1436">P&#345;ihl&#225;&#353;ka</text><line style="stroke:#181818;stroke-width:0.5;" x1="8" x2="393.3135" y1="618.2969" y2="618.2969"/><g data-visibility-modifier="IE_MANDATORY"><ellipse cx="18" cy="631.9453" fill="#000000" rx="3" ry="3" style="stroke:#000000;stroke-width:1;"/></g><text fill="#000000" font-family="Arial" font-size="14" lengthAdjust="spacing" textLength="101.001" x="27" y="635.292">id : UUID &#171;PK&#187;</text><line style="stroke:#181818;stroke-width:1;" x1="8" x2="393.3135" y1="642.5938" y2="642.5938"/><g data-visibility-modifier="IE_MANDATORY"><ellipse cx="18" cy="656.2422" fill="#000000" rx="3" ry="3" style="stroke:#000000;stroke-width:1;"/></g><text fill="#000000" font-family="Arial" font-size="14" lengthAdjust="spacing" textLength="138.5166" x="27" y="659.5889">hrac_id : UUID &#171;FK&#187;</text><g data-visibility-modifier="IE_MANDATORY"><ellipse cx="18" cy="672.5391" fill="#000000" rx="3" ry="3" style="stroke:#000000;stroke-width:1;"/></g><text fill="#000000" font-family="Arial" font-size="14" lengthAdjust="spacing" textLength="149.0713" x="27" y="675.8857">turnaj_id : UUID &#171;FK&#187;</text><g data-visibility-modifier="IE_MANDATORY"><ellipse cx="18" cy="688.8359" fill="#000000" rx="3" ry="3" style="stroke:#000000;stroke-width:1;"/></g><text fill="#000000" font-family="Arial" font-size="14" lengthAdjust="spacing" textLength="361.3135" x="27" y="692.1826">stav : ENUM(&#269;ek&#225;, schv&#225;lena, zam&#237;tnuta, odstoupil)</text><text fill="#000000" font-family="Arial" font-size="14" lengthAdjust="spacing" textLength="177.7617" x="27" y="708.4795">startovni_poradi : Integer</text><g data-visibility-modifier="IE_MANDATORY"><ellipse cx="18" cy="721.4297" fill="#000000" rx="3" ry="3" style="stroke:#000000;stroke-width:1;"/></g><text fill="#000000" font-family="Arial" font-size="14" lengthAdjust="spacing" textLength="127.2373" x="27" y="724.7764">datum : DateTime</text></g><!--class round--><g class="entity" data-qualified-name="round" data-source-line="43" id="ent0005"><rect fill="#F1F1F1" height="129.4844" rx="2.5" ry="2.5" style="stroke:#181818;stroke-width:0.5;" width="175.0713" x="429" y="594.7969"/><ellipse cx="497.1851" cy="610.7969" fill="#ADD1B2" rx="11" ry="11" style="stroke:#181818;stroke-width:1;"/><path d="M501.2944,616.7969 L493.5757,616.7969 L493.5757,604.4063 L501.2944,604.4063 L501.2944,606.5625 L496.0288,606.5625 L496.0288,609.2344 L500.7944,609.2344 L500.7944,611.3906 L496.0288,611.3906 L496.0288,614.6406 L501.2944,614.6406 L501.2944,616.7969 Z " fill="#000000"/><text fill="#000000" font-family="Arial" font-size="14" lengthAdjust="spacing" textLength="30.2012" x="517.6851" y="615.6436">Kolo</text><line style="stroke:#181818;stroke-width:0.5;" x1="430" x2="603.0713" y1="626.7969" y2="626.7969"/><g data-visibility-modifier="IE_MANDATORY"><ellipse cx="440" cy="640.4453" fill="#000000" rx="3" ry="3" style="stroke:#000000;stroke-width:1;"/></g><text fill="#000000" font-family="Arial" font-size="14" lengthAdjust="spacing" textLength="101.001" x="449" y="643.792">id : UUID &#171;PK&#187;</text><line style="stroke:#181818;stroke-width:1;" x1="430" x2="603.0713" y1="651.0938" y2="651.0938"/><g data-visibility-modifier="IE_MANDATORY"><ellipse cx="440" cy="664.7422" fill="#000000" rx="3" ry="3" style="stroke:#000000;stroke-width:1;"/></g><text fill="#000000" font-family="Arial" font-size="14" lengthAdjust="spacing" textLength="149.0713" x="449" y="668.0889">turnaj_id : UUID &#171;FK&#187;</text><g data-visibility-modifier="IE_MANDATORY"><ellipse cx="440" cy="681.0391" fill="#000000" rx="3" ry="3" style="stroke:#000000;stroke-width:1;"/></g><text fill="#000000" font-family="Arial" font-size="14" lengthAdjust="spacing" textLength="131.4551" x="449" y="684.3857">cislo_kola : Integer</text><g data-visibility-modifier="IE_MANDATORY"><ellipse cx="440" cy="697.3359" fill="#000000" rx="3" ry="3" style="stroke:#000000;stroke-width:1;"/></g><text fill="#000000" font-family="Arial" font-size="14" lengthAdjust="spacing" textLength="147.7383" x="449" y="700.6826">zverejneno : Boolean</text><g data-visibility-modifier="IE_MANDATORY"><ellipse cx="440" cy="713.6328" fill="#000000" rx="3" ry="3" style="stroke:#000000;stroke-width:1;"/></g><text fill="#000000" font-family="Arial" font-size="14" lengthAdjust="spacing" textLength="135.2012" x="449" y="716.9795">uzavreno : Boolean</text></g><!--class match--><g class="entity" data-qualified-name="match" data-source-line="52" id="ent0006"><rect fill="#F1F1F1" height="178.375" rx="2.5" ry="2.5" style="stroke:#181818;stroke-width:0.5;" width="407.3906" x="708" y="808.2969"/><ellipse cx="885.9805" cy="824.2969" fill="#ADD1B2" rx="11" ry="11" style="stroke:#181818;stroke-width:1;"/><path d="M890.0898,830.2969 L882.3711,830.2969 L882.3711,817.9063 L890.0898,817.9063 L890.0898,820.0625 L884.8242,820.0625 L884.8242,822.7344 L889.5898,822.7344 L889.5898,824.8906 L884.8242,824.8906 L884.8242,828.1406 L890.0898,828.1406 L890.0898,830.2969 Z " fill="#000000"/><text fill="#000000" font-family="Arial" font-size="14" lengthAdjust="spacing" textLength="42.9297" x="906.4805" y="829.1436">Z&#225;pas</text><line style="stroke:#181818;stroke-width:0.5;" x1="709" x2="1114.3906" y1="840.2969" y2="840.2969"/><g data-visibility-modifier="IE_MANDATORY"><ellipse cx="719" cy="853.9453" fill="#000000" rx="3" ry="3" style="stroke:#000000;stroke-width:1;"/></g><text fill="#000000" font-family="Arial" font-size="14" lengthAdjust="spacing" textLength="101.001" x="728" y="857.292">id : UUID &#171;PK&#187;</text><line style="stroke:#181818;stroke-width:1;" x1="709" x2="1114.3906" y1="864.5938" y2="864.5938"/><g data-visibility-modifier="IE_MANDATORY"><ellipse cx="719" cy="878.2422" fill="#000000" rx="3" ry="3" style="stroke:#000000;stroke-width:1;"/></g><text fill="#000000" font-family="Arial" font-size="14" lengthAdjust="spacing" textLength="136.7393" x="728" y="881.5889">kolo_id : UUID &#171;FK&#187;</text><g data-visibility-modifier="IE_MANDATORY"><ellipse cx="719" cy="894.5391" fill="#000000" rx="3" ry="3" style="stroke:#000000;stroke-width:1;"/></g><text fill="#000000" font-family="Arial" font-size="14" lengthAdjust="spacing" textLength="170.4678" x="728" y="897.8857">hrac_bily_id : UUID &#171;FK&#187;</text><g data-visibility-modifier="IE_MANDATORY"><ellipse cx="719" cy="910.8359" fill="#000000" rx="3" ry="3" style="stroke:#000000;stroke-width:1;"/></g><text fill="#000000" font-family="Arial" font-size="14" lengthAdjust="spacing" textLength="184.7412" x="728" y="914.1826">hrac_cerny_id : UUID &#171;FK&#187;</text><text fill="#000000" font-family="Arial" font-size="14" lengthAdjust="spacing" textLength="136.4248" x="728" y="930.4795">cislo_stolu : Integer</text><g data-visibility-modifier="IE_MANDATORY"><ellipse cx="719" cy="943.4297" fill="#000000" rx="3" ry="3" style="stroke:#000000;stroke-width:1;"/></g><text fill="#000000" font-family="Arial" font-size="14" lengthAdjust="spacing" textLength="381.3906" x="728" y="946.7764">vysledek : ENUM(1-0, 0-1, &#189;-&#189;, +-, -+, 0-0, nesehran)</text><g data-visibility-modifier="IE_MANDATORY"><ellipse cx="719" cy="959.7266" fill="#000000" rx="3" ry="3" style="stroke:#000000;stroke-width:1;"/></g><text fill="#000000" font-family="Arial" font-size="14" lengthAdjust="spacing" textLength="132.125" x="728" y="963.0732">potvrzen : Boolean</text><text fill="#000000" font-family="Arial" font-size="14" lengthAdjust="spacing" textLength="185.0693" x="728" y="979.3701">protest_poznamka : String</text></g><!--class standing--><g class="entity" data-qualified-name="standing" data-source-line="64" id="ent0007"><rect fill="#F1F1F1" height="178.375" rx="2.5" ry="2.5" style="stroke:#181818;stroke-width:0.5;" width="202.0049" x="639.5" y="570.2969"/><ellipse cx="714.1929" cy="586.2969" fill="#ADD1B2" rx="11" ry="11" style="stroke:#181818;stroke-width:1;"/><path d="M718.3022,592.2969 L710.5835,592.2969 L710.5835,579.9063 L718.3022,579.9063 L718.3022,582.0625 L713.0366,582.0625 L713.0366,584.7344 L717.8022,584.7344 L717.8022,586.8906 L713.0366,586.8906 L713.0366,590.1406 L718.3022,590.1406 L718.3022,592.2969 Z " fill="#000000"/><text fill="#000000" font-family="Arial" font-size="14" lengthAdjust="spacing" textLength="44.1191" x="734.6929" y="591.1436">Po&#345;ad&#237;</text><line style="stroke:#181818;stroke-width:0.5;" x1="640.5" x2="840.5049" y1="602.2969" y2="602.2969"/><g data-visibility-modifier="IE_MANDATORY"><ellipse cx="650.5" cy="615.9453" fill="#000000" rx="3" ry="3" style="stroke:#000000;stroke-width:1;"/></g><text fill="#000000" font-family="Arial" font-size="14" lengthAdjust="spacing" textLength="101.001" x="659.5" y="619.292">id : UUID &#171;PK&#187;</text><line style="stroke:#181818;stroke-width:1;" x1="640.5" x2="840.5049" y1="626.5938" y2="626.5938"/><g data-visibility-modifier="IE_MANDATORY"><ellipse cx="650.5" cy="640.2422" fill="#000000" rx="3" ry="3" style="stroke:#000000;stroke-width:1;"/></g><text fill="#000000" font-family="Arial" font-size="14" lengthAdjust="spacing" textLength="149.0713" x="659.5" y="643.5889">turnaj_id : UUID &#171;FK&#187;</text><g data-visibility-modifier="IE_MANDATORY"><ellipse cx="650.5" cy="656.5391" fill="#000000" rx="3" ry="3" style="stroke:#000000;stroke-width:1;"/></g><text fill="#000000" font-family="Arial" font-size="14" lengthAdjust="spacing" textLength="138.5166" x="659.5" y="659.8857">hrac_id : UUID &#171;FK&#187;</text><g data-visibility-modifier="IE_MANDATORY"><ellipse cx="650.5" cy="672.8359" fill="#000000" rx="3" ry="3" style="stroke:#000000;stroke-width:1;"/></g><text fill="#000000" font-family="Arial" font-size="14" lengthAdjust="spacing" textLength="82.8174" x="659.5" y="676.1826">body : Float</text><text fill="#000000" font-family="Arial" font-size="14" lengthAdjust="spacing" textLength="111.2002" x="659.5" y="692.4795">buchholz : Float</text><text fill="#000000" font-family="Arial" font-size="14" lengthAdjust="spacing" textLength="176.0049" x="659.5" y="708.7764">sonneborn_berger : Float</text><g data-visibility-modifier="IE_MANDATORY"><ellipse cx="650.5" cy="721.7266" fill="#000000" rx="3" ry="3" style="stroke:#000000;stroke-width:1;"/></g><text fill="#000000" font-family="Arial" font-size="14" lengthAdjust="spacing" textLength="150.042" x="659.5" y="725.0732">pocet_vyher : Integer</text><text fill="#000000" font-family="Arial" font-size="14" lengthAdjust="spacing" textLength="108.541" x="659.5" y="741.3701">poradi : Integer</text></g><!--link user to tournament--><g class="link" data-entity-1="ent0002" data-entity-2="ent0003" data-link-type="crowfoot" data-source-line="77" id="lnk8"><path codeLine="77" d="M644.25,247.3569 C644.25,266.7969 644.25,261.3069 644.25,281.0069" fill="none" id="user-tournament" style="stroke:#181818;stroke-width:1;"/><line style="stroke:#181818;stroke-width:1;" x1="640.25" x2="648.25" y1="243.3569" y2="243.3569"/><line style="stroke:#181818;stroke-width:1;" x1="640.25" x2="648.25" y1="246.3569" y2="246.3569"/><line style="stroke:#181818;stroke-width:1;" x1="644.25" x2="644.25" y1="247.3569" y2="239.3569"/><line style="stroke:#181818;stroke-width:1;" x1="644.25" x2="650.25" y1="291.0069" y2="299.0069"/><line style="stroke:#181818;stroke-width:1;" x1="644.25" x2="638.25" y1="291.0069" y2="299.0069"/><line style="stroke:#181818;stroke-width:1;" x1="644.25" x2="644.25" y1="291.0069" y2="299.0069"/><ellipse cx="644.25" cy="285.0069" fill="none" rx="4" ry="4" style="stroke:#181818;stroke-width:1;"/><text fill="#000000" font-family="Arial" font-size="13" lengthAdjust="spacing" textLength="50.1147" x="593.25" y="265.2438">zakl&#225;d&#225;</text></g><!--link user to reg--><g class="link" data-entity-1="ent0002" data-entity-2="ent0004" data-link-type="crowfoot" data-source-line="78" id="lnk9"><path codeLine="78" d="M562.59,142.2969 C384.96,142.2969 161.25,142.2969 161.25,142.2969 C161.25,142.2969 161.25,425.4269 161.25,568.0469" fill="none" id="user-reg" style="stroke:#181818;stroke-width:1;"/><line style="stroke:#181818;stroke-width:1;" x1="566.59" x2="566.59" y1="138.2969" y2="146.2969"/><line style="stroke:#181818;stroke-width:1;" x1="563.59" x2="563.59" y1="138.2969" y2="146.2969"/><line style="stroke:#181818;stroke-width:1;" x1="562.59" x2="570.59" y1="142.2969" y2="142.2969"/><line style="stroke:#181818;stroke-width:1;" x1="161.25" x2="167.25" y1="578.0469" y2="586.0469"/><line style="stroke:#181818;stroke-width:1;" x1="161.25" x2="155.25" y1="578.0469" y2="586.0469"/><line style="stroke:#181818;stroke-width:1;" x1="161.25" x2="161.25" y1="578.0469" y2="586.0469"/><ellipse cx="161.25" cy="572.0469" fill="none" rx="4" ry="4" style="stroke:#181818;stroke-width:1;"/><text fill="#000000" font-family="Arial" font-size="13" lengthAdjust="spacing" textLength="48.0835" x="112.25" y="155.5738">pod&#225;v&#225;</text></g><!--link tournament to reg--><g class="link" data-entity-1="ent0003" data-entity-2="ent0004" data-link-type="crowfoot" data-source-line="79" id="lnk10"><path codeLine="79" d="M354.75,518.5169 C354.75,543.9169 354.75,544.4969 354.75,568.0469" fill="none" id="tournament-reg" style="stroke:#181818;stroke-width:1;"/><line style="stroke:#181818;stroke-width:1;" x1="350.75" x2="358.75" y1="514.5169" y2="514.5169"/><line style="stroke:#181818;stroke-width:1;" x1="350.75" x2="358.75" y1="517.5169" y2="517.5169"/><line style="stroke:#181818;stroke-width:1;" x1="354.75" x2="354.75" y1="518.5169" y2="510.5169"/><line style="stroke:#181818;stroke-width:1;" x1="354.75" x2="360.75" y1="578.0469" y2="586.0469"/><line style="stroke:#181818;stroke-width:1;" x1="354.75" x2="348.75" y1="578.0469" y2="586.0469"/><line style="stroke:#181818;stroke-width:1;" x1="354.75" x2="354.75" y1="578.0469" y2="586.0469"/><ellipse cx="354.75" cy="572.0469" fill="none" rx="4" ry="4" style="stroke:#181818;stroke-width:1;"/><text fill="#000000" font-family="Arial" font-size="13" lengthAdjust="spacing" textLength="47.4043" x="306.75" y="544.3538">eviduje</text></g><!--link tournament to round--><g class="link" data-entity-1="ent0003" data-entity-2="ent0005" data-link-type="crowfoot" data-source-line="80" id="lnk11"><path codeLine="80" d="M516.5,518.5169 C516.5,547.0569 516.5,551.0869 516.5,576.6369" fill="none" id="tournament-round" style="stroke:#181818;stroke-width:1;"/><line style="stroke:#181818;stroke-width:1;" x1="512.5" x2="520.5" y1="514.5169" y2="514.5169"/><line style="stroke:#181818;stroke-width:1;" x1="512.5" x2="520.5" y1="517.5169" y2="517.5169"/><line style="stroke:#181818;stroke-width:1;" x1="516.5" x2="516.5" y1="518.5169" y2="510.5169"/><line style="stroke:#181818;stroke-width:1;" x1="516.5" x2="522.5" y1="586.6369" y2="594.6369"/><line style="stroke:#181818;stroke-width:1;" x1="516.5" x2="510.5" y1="586.6369" y2="594.6369"/><line style="stroke:#181818;stroke-width:1;" x1="516.5" x2="516.5" y1="586.6369" y2="594.6369"/><ellipse cx="516.5" cy="580.6369" fill="none" rx="4" ry="4" style="stroke:#181818;stroke-width:1;"/><text fill="#000000" font-family="Arial" font-size="13" lengthAdjust="spacing" textLength="59.0332" x="456.5" y="548.6438">obsahuje</text></g><!--link round to match--><g class="link" data-entity-1="ent0005" data-entity-2="ent0006" data-link-type="crowfoot" data-source-line="81" id="lnk12"><path codeLine="81" d="M516.5,731.9769 C516.5,802.7569 516.5,898.2969 516.5,898.2969 C516.5,898.2969 593.24,898.2969 689.93,898.2969" fill="none" id="round-match" style="stroke:#181818;stroke-width:1;"/><line style="stroke:#181818;stroke-width:1;" x1="512.5" x2="520.5" y1="727.9769" y2="727.9769"/><line style="stroke:#181818;stroke-width:1;" x1="512.5" x2="520.5" y1="730.9769" y2="730.9769"/><line style="stroke:#181818;stroke-width:1;" x1="516.5" x2="516.5" y1="731.9769" y2="723.9769"/><line style="stroke:#181818;stroke-width:1;" x1="699.93" x2="707.93" y1="898.2969" y2="892.2969"/><line style="stroke:#181818;stroke-width:1;" x1="699.93" x2="707.93" y1="898.2969" y2="904.2969"/><line style="stroke:#181818;stroke-width:1;" x1="699.93" x2="707.93" y1="898.2969" y2="898.2969"/><ellipse cx="693.93" cy="898.2969" fill="none" rx="4" ry="4" style="stroke:#181818;stroke-width:1;"/><text fill="#000000" font-family="Arial" font-size="13" lengthAdjust="spacing" textLength="59.0332" x="465.05" y="894.3638">obsahuje</text></g><!--link user to match--><g class="link" data-entity-1="ent0002" data-entity-2="ent0006" data-link-type="crowfoot" data-source-line="82" id="lnk13"><path codeLine="82" d="M884.33,247.4069 C884.33,395.1969 884.33,647.5969 884.33,790.1869" fill="none" id="user-match" style="stroke:#181818;stroke-width:1;"/><line style="stroke:#181818;stroke-width:1;" x1="880.33" x2="888.33" y1="243.4069" y2="243.4069"/><line style="stroke:#181818;stroke-width:1;" x1="880.33" x2="888.33" y1="246.4069" y2="246.4069"/><line style="stroke:#181818;stroke-width:1;" x1="884.33" x2="884.33" y1="247.4069" y2="239.4069"/><line style="stroke:#181818;stroke-width:1;" x1="884.33" x2="890.33" y1="800.1869" y2="808.1869"/><line style="stroke:#181818;stroke-width:1;" x1="884.33" x2="878.33" y1="800.1869" y2="808.1869"/><line style="stroke:#181818;stroke-width:1;" x1="884.33" x2="884.33" y1="800.1869" y2="808.1869"/><ellipse cx="884.33" cy="794.1869" fill="none" rx="4" ry="4" style="stroke:#181818;stroke-width:1;"/><text fill="#000000" font-family="Arial" font-size="13" lengthAdjust="spacing" textLength="70.605" x="813.33" y="519.8638">hraje (b&#237;l&#253;)</text></g><!--link user to match--><g class="link" data-entity-1="ent0002" data-entity-2="ent0006" data-link-type="crowfoot" data-source-line="83" id="lnk14"><path codeLine="83" d="M927.17,247.4069 C927.17,395.1969 927.17,647.5969 927.17,790.1869" fill="none" id="user-match-1" style="stroke:#181818;stroke-width:1;"/><line style="stroke:#181818;stroke-width:1;" x1="923.17" x2="931.17" y1="243.4069" y2="243.4069"/><line style="stroke:#181818;stroke-width:1;" x1="923.17" x2="931.17" y1="246.4069" y2="246.4069"/><line style="stroke:#181818;stroke-width:1;" x1="927.17" x2="927.17" y1="247.4069" y2="239.4069"/><line style="stroke:#181818;stroke-width:1;" x1="927.17" x2="933.17" y1="800.1869" y2="808.1869"/><line style="stroke:#181818;stroke-width:1;" x1="927.17" x2="921.17" y1="800.1869" y2="808.1869"/><line style="stroke:#181818;stroke-width:1;" x1="927.17" x2="927.17" y1="800.1869" y2="808.1869"/><ellipse cx="927.17" cy="794.1869" fill="none" rx="4" ry="4" style="stroke:#181818;stroke-width:1;"/><text fill="#000000" font-family="Arial" font-size="13" lengthAdjust="spacing" textLength="83.8589" x="843.17" y="536.8638">hraje (&#269;ern&#253;)</text></g><!--link tournament to standing--><g class="link" data-entity-1="ent0003" data-entity-2="ent0007" data-link-type="crowfoot" data-source-line="84" id="lnk15"><path codeLine="84" d="M678.5,518.5169 C678.5,538.3169 678.5,532.8369 678.5,552.0769" fill="none" id="tournament-standing" style="stroke:#181818;stroke-width:1;"/><line style="stroke:#181818;stroke-width:1;" x1="674.5" x2="682.5" y1="514.5169" y2="514.5169"/><line style="stroke:#181818;stroke-width:1;" x1="674.5" x2="682.5" y1="517.5169" y2="517.5169"/><line style="stroke:#181818;stroke-width:1;" x1="678.5" x2="678.5" y1="518.5169" y2="510.5169"/><line style="stroke:#181818;stroke-width:1;" x1="678.5" x2="684.5" y1="562.0769" y2="570.0769"/><line style="stroke:#181818;stroke-width:1;" x1="678.5" x2="672.5" y1="562.0769" y2="570.0769"/><line style="stroke:#181818;stroke-width:1;" x1="678.5" x2="678.5" y1="562.0769" y2="570.0769"/><ellipse cx="678.5" cy="556.0769" fill="none" rx="4" ry="4" style="stroke:#181818;stroke-width:1;"/><text fill="#000000" font-family="Arial" font-size="13" lengthAdjust="spacing" textLength="66.1426" x="611.5" y="536.3638">m&#225; po&#345;ad&#237;</text></g><!--link user to standing--><g class="link" data-entity-1="ent0002" data-entity-2="ent0007" data-link-type="crowfoot" data-source-line="85" id="lnk16"><path codeLine="85" d="M779.5,247.4369 C779.5,342.6369 779.5,460.1469 779.5,552.2869" fill="none" id="user-standing" style="stroke:#181818;stroke-width:1;"/><line style="stroke:#181818;stroke-width:1;" x1="775.5" x2="783.5" y1="243.4369" y2="243.4369"/><line style="stroke:#181818;stroke-width:1;" x1="775.5" x2="783.5" y1="246.4369" y2="246.4369"/><line style="stroke:#181818;stroke-width:1;" x1="779.5" x2="779.5" y1="247.4369" y2="239.4369"/><line style="stroke:#181818;stroke-width:1;" x1="779.5" x2="785.5" y1="562.2869" y2="570.2869"/><line style="stroke:#181818;stroke-width:1;" x1="779.5" x2="773.5" y1="562.2869" y2="570.2869"/><line style="stroke:#181818;stroke-width:1;" x1="779.5" x2="779.5" y1="562.2869" y2="570.2869"/><ellipse cx="779.5" cy="556.2869" fill="none" rx="4" ry="4" style="stroke:#181818;stroke-width:1;"/><text fill="#000000" font-family="Arial" font-size="13" lengthAdjust="spacing" textLength="61.6992" x="780.5" y="400.9238">figuruje v</text></g><?plantuml-src fLJ1RjH84BtFLxJciX1i2Qu88R4AaI84Ga0ux6LKjYlJFMvtMTrj8nluX7n0RZj73lc4SC2P_zfoJsPY3uPeXIypgdfT_UgzgdQvCYLOA4I6vr1fVqB6lu42nGkhGC_SFg-LGT-KACXwIREPLrwZcBzy9uuLB7j4B4xVYys_a4ggks-YxTObk6O-cw5XS2FcPvllgWQFUYx0YSgX5PzdGXm9bOcdukpiz5WyU_RsrVFd78pZa5aLQ8YJxxrLPXb2M83Iuv14fsaXmSbnt19JV2fUlZbx_K2Iyv6GjblVN4JSn1ACOegURCIuLb9sSz5THGAoGfc7V1ovf05BcL5SuzHuNABb-BdAS14Oxs_ATPMCRwOQxPRvtyGamCo-tkdmeR86La44J_r_RjBVAuM15klnBHdugbYq8665WUKng_j15HYoEPIGAWyZzaV2DSvZiPF5VLBEzGfK9bjOIhQz7mc6bBG7UJ0Ps8nnK2h-IRJoxHPOKef-aPCUNUCL9XOXRyQ4kL2zArhgRcse1jDTSrrSAkSjf1Y9acbqLx9RHw9geTvSOk1qQncmOukXIYUzIWDrtsukbUJQctKEGMEkVQ-uag_-kMeG8fWrdHksStE1UK_PfRBkrXeDHAA5ehloflBydpB7PfTAzxtmGUkfDcfHaeLC7LWKV1tQEMZl5MdQjjLRTczZlwEVgdvjsBh34MdxwLsPyG3tYTwFNy_rFs7Z0xa2V2hl9STNqpIru4UYTFERT8hMJEQtVR7SkZfeh6wSnWppdMbFuiUHU1m_YSIFw_W7p-6ZE1Bnepx62OCE-IQp6tHVsnRDI1AULO_Eiuqjht4ET-C-d4ZQN4BMNGLbmYunu8-S-_Mu9fJrEtUY2Jm7aYgLadGx23ao1XEoPf6WPM46gTqsruqCyJlfVXfJRkylyR7r89jPUCbllozVufW-3zyrFZHl8UUDpBhrV0hSB-ZkOt193AnxxB3AD1PhbLKhd8Q61Tb3AN4W0tQOkCLkvtK2Eq7t0CjUh50yu2TBTzSF_yS9VZ6i2KScoE_7P7kawDRimUqOJLrnW3zNoyfo0wAU_mS0?></g></svg>