
<?plantuml 1.2026.2?><svg xmlns="http://www.w3.org/2000/svg" xmlns:xlink="http://www.w3.org/1999/xlink" contentStyleType="text/css" data-diagram-type="DESCRIPTION" height="542px" preserveAspectRatio="none" style="width:3070px;height:542px;background:#FFFFFF;" version="1.1" viewBox="0 0 3070 542" width="3070px" zoomAndPan="magnify"><title>Use Case Diagram - Role a p&#345;&#237;pady u&#382;it&#237;</title><defs/><g><g class="title" data-source-line="12"><text fill="#000000" font-family="Arial" font-size="14" font-weight="bold" lengthAdjust="spacing" textLength="312.3887" x="1371.8057" y="22.9951">Use Case Diagram - Role a p&#345;&#237;pady u&#382;it&#237;</text></g><!--cluster IS ?achov? z?pasy--><g class="cluster" data-qualified-name="IS .achov. z.pasy" data-source-line="23" id="ent0009"><rect fill="none" height="108" rx="2.5" ry="2.5" style="stroke:#181818;stroke-width:1;" width="2984" x="80" y="428.7969"/><text fill="#000000" font-family="Arial" font-size="14" font-weight="bold" lengthAdjust="spacing" textLength="145.5986" x="1499.2007" y="443.792">IS &#352;achov&#233; z&#225;pasy</text></g><!--entity UC1--><g class="entity" data-qualified-name="IS .achov. z.pasy.UC1" data-source-line="24" id="ent0010"><ellipse cx="2938.9472" cy="492.3863" fill="#FFF3CD" rx="108.4472" ry="24.0894" style="stroke:#856404;stroke-width:0.5;"/><text fill="#000000" font-family="Arial" font-size="14" lengthAdjust="spacing" textLength="194.5166" x="2841.6889" y="497.0347">Prohl&#237;&#382;et turnaje a v&#253;sledky</text></g><!--entity UC2--><g class="entity" data-qualified-name="IS .achov. z.pasy.UC2" data-source-line="25" id="ent0011"><ellipse cx="1698.0017" cy="492.0972" fill="#FFF3CD" rx="99.5017" ry="22.3003" style="stroke:#856404;stroke-width:0.5;"/><text fill="#000000" font-family="Arial" font-size="14" lengthAdjust="spacing" textLength="174.959" x="1610.5223" y="496.7457">Registrovat se a p&#345;ihl&#225;sit</text></g><!--entity UC3--><g class="entity" data-qualified-name="IS .achov. z.pasy.UC3" data-source-line="26" id="ent0012"><ellipse cx="1950.8612" cy="492.2691" fill="#FFF3CD" rx="117.8612" ry="25.9722" style="stroke:#856404;stroke-width:0.5;"/><text fill="#000000" font-family="Arial" font-size="14" lengthAdjust="spacing" textLength="214.7852" x="1843.4686" y="496.9175">Spravovat profil (ELO, FIDE ID)</text></g><!--entity UC4--><g class="entity" data-qualified-name="IS .achov. z.pasy.UC4" data-source-line="27" id="ent0013"><ellipse cx="2194.1224" cy="492.1214" fill="#FFF3CD" rx="89.6224" ry="20.3245" style="stroke:#856404;stroke-width:0.5;"/><text fill="#000000" font-family="Arial" font-size="14" lengthAdjust="spacing" textLength="152.8857" x="2117.6795" y="496.7698">P&#345;ihl&#225;sit se do turnaje</text></g><!--entity UC5--><g class="entity" data-qualified-name="IS .achov. z.pasy.UC5" data-source-line="28" id="ent0014"><ellipse cx="2446.0268" cy="492.1022" fill="#FFF3CD" rx="127.0268" ry="27.8054" style="stroke:#856404;stroke-width:0.5;"/><text fill="#000000" font-family="Arial" font-size="14" lengthAdjust="spacing" textLength="234.2881" x="2328.8828" y="496.7507">Zadat a potvrdit v&#253;sledek z&#225;pasu</text></g><!--entity UC6--><g class="entity" data-qualified-name="IS .achov. z.pasy.UC6" data-source-line="29" id="ent0015"><ellipse cx="2701.7565" cy="492.3482" fill="#FFF3CD" rx="93.2565" ry="21.0513" style="stroke:#856404;stroke-width:0.5;"/><text fill="#000000" font-family="Arial" font-size="14" lengthAdjust="spacing" textLength="161.0752" x="2621.2189" y="496.9966">Podat protest k z&#225;pasu</text></g><!--entity UC7--><g class="entity" data-qualified-name="IS .achov. z.pasy.UC7" data-source-line="30" id="ent0016"><ellipse cx="953.9226" cy="492.1814" fill="#FFF3CD" rx="64.9226" ry="15.3845" style="stroke:#856404;stroke-width:0.5;"/><text fill="#000000" font-family="Arial" font-size="14" lengthAdjust="spacing" textLength="93.2627" x="907.2913" y="496.8298">Zalo&#382;it turnaj</text></g><!--entity UC8--><g class="entity" data-qualified-name="IS .achov. z.pasy.UC8" data-source-line="31" id="ent0017"><ellipse cx="749.9067" cy="492.4782" fill="#FFF3CD" rx="103.9067" ry="23.1813" style="stroke:#856404;stroke-width:0.5;"/><text fill="#000000" font-family="Arial" font-size="14" lengthAdjust="spacing" textLength="184.6318" x="657.5907" y="497.1266">Spravovat startovn&#237; listinu</text></g><!--entity UC9--><g class="entity" data-qualified-name="IS .achov. z.pasy.UC9" data-source-line="32" id="ent0018"><ellipse cx="501.1171" cy="492.2203" fill="#FFF3CD" rx="110.1171" ry="24.4234" style="stroke:#856404;stroke-width:0.5;"/><text fill="#000000" font-family="Arial" font-size="14" lengthAdjust="spacing" textLength="198.1328" x="402.0507" y="496.8687">Generovat a publikovat kolo</text></g><!--entity UC10--><g class="entity" data-qualified-name="IS .achov. z.pasy.UC10" data-source-line="33" id="ent0019"><ellipse cx="226.0075" cy="492.1984" fill="#FFF3CD" rx="130.0075" ry="28.4015" style="stroke:#856404;stroke-width:0.5;"/><text fill="#000000" font-family="Arial" font-size="14" lengthAdjust="spacing" textLength="240.5908" x="105.7121" y="496.8468">Opravit p&#225;rov&#225;n&#237; / &#345;e&#353;it kontumaci</text></g><!--entity UC11--><g class="entity" data-qualified-name="IS .achov. z.pasy.UC11" data-source-line="34" id="ent0020"><ellipse cx="1177.2072" cy="492.2383" fill="#FFF3CD" rx="122.7072" ry="26.9414" style="stroke:#856404;stroke-width:0.5;"/><text fill="#000000" font-family="Arial" font-size="14" lengthAdjust="spacing" textLength="225.1211" x="1064.6466" y="496.8867">Exportovat v&#253;sledky (CSV, PGN)</text></g><!--entity UC12--><g class="entity" data-qualified-name="IS .achov. z.pasy.UC12" data-source-line="35" id="ent0021"><ellipse cx="1448.9334" cy="492.0836" fill="#FFF3CD" rx="114.4334" ry="25.2867" style="stroke:#856404;stroke-width:0.5;"/><text fill="#000000" font-family="Arial" font-size="14" lengthAdjust="spacing" textLength="207.4365" x="1345.2151" y="496.732">Spravovat u&#382;ivatele a syst&#233;m</text></g><!--entity Host--><g class="entity" data-qualified-name="Host" data-source-line="14" id="ent0002"><ellipse cx="2300" cy="59.2969" fill="#E9ECEF" rx="16" ry="16" style="stroke:#343A40;stroke-width:0.5;"/><path d="M2300,79.2969 C2304,79.2969 2307,79.2969 2311,75.2969 C2319,75.2969 2327,83.2969 2327,91.2969 L2327,95.2969 C2327,99.2969 2323,103.2969 2319,103.2969 L2281,103.2969 C2277,103.2969 2273,99.2969 2273,95.2969 L2273,91.2969 C2273,83.2969 2281,75.2969 2289,75.2969 C2293,79.2969 2296,79.2969 2300,79.2969" fill="#E9ECEF" style="stroke:#343A40;stroke-width:0.5;"/><text fill="#000000" font-family="Arial" font-size="14" lengthAdjust="spacing" textLength="31.876" x="2284.062" y="116.792">Host</text></g><!--entity Player--><g class="entity" data-qualified-name="Player" data-source-line="15" id="ent0003"><ellipse cx="2194" cy="196.2969" fill="#E9ECEF" rx="16" ry="16" style="stroke:#343A40;stroke-width:0.5;"/><path d="M2194,216.2969 C2198,216.2969 2201,216.2969 2205,212.2969 C2213,212.2969 2221,220.2969 2221,228.2969 L2221,232.2969 C2221,236.2969 2217,240.2969 2213,240.2969 L2175,240.2969 C2171,240.2969 2167,236.2969 2167,232.2969 L2167,228.2969 C2167,220.2969 2175,212.2969 2183,212.2969 C2187,216.2969 2190,216.2969 2194,216.2969" fill="#E9ECEF" style="stroke:#343A40;stroke-width:0.5;"/><text fill="#000000" font-family="Arial" font-size="14" lengthAdjust="spacing" textLength="32.5596" x="2177.7202" y="253.792">Hr&#225;&#269;</text></g><!--entity Org--><g class="entity" data-qualified-name="Org" data-source-line="16" id="ent0004"><ellipse cx="749.9565" cy="333.2969" fill="#E9ECEF" rx="16" ry="16" style="stroke:#343A40;stroke-width:0.5;"/><path d="M749.9565,353.2969 C753.9565,353.2969 756.9565,353.2969 760.9565,349.2969 C768.9565,349.2969 776.9565,357.2969 776.9565,365.2969 L776.9565,369.2969 C776.9565,373.2969 772.9565,377.2969 768.9565,377.2969 L730.9565,377.2969 C726.9565,377.2969 722.9565,373.2969 722.9565,369.2969 L722.9565,365.2969 C722.9565,357.2969 730.9565,349.2969 738.9565,349.2969 C742.9565,353.2969 745.9565,353.2969 749.9565,353.2969" fill="#E9ECEF" style="stroke:#343A40;stroke-width:0.5;"/><text fill="#000000" font-family="Arial" font-size="14" lengthAdjust="spacing" textLength="159.9131" x="670" y="390.792">Organiz&#225;tor / Rozhod&#269;&#237;</text></g><!--entity Admin--><g class="entity" data-qualified-name="Admin" data-source-line="17" id="ent0005"><ellipse cx="33" cy="470.2969" fill="#E9ECEF" rx="16" ry="16" style="stroke:#343A40;stroke-width:0.5;"/><path d="M33,490.2969 C37,490.2969 40,490.2969 44,486.2969 C52,486.2969 60,494.2969 60,502.2969 L60,506.2969 C60,510.2969 56,514.2969 52,514.2969 L14,514.2969 C10,514.2969 6,510.2969 6,506.2969 L6,502.2969 C6,494.2969 14,486.2969 22,486.2969 C26,490.2969 29,490.2969 33,490.2969" fill="#E9ECEF" style="stroke:#343A40;stroke-width:0.5;"/><text fill="#000000" font-family="Arial" font-size="14" lengthAdjust="spacing" textLength="44.8643" x="10.5679" y="527.792">Admin</text></g><!--reverse link Host to Player--><g class="link" data-entity-1="ent0002" data-entity-2="ent0003" data-link-type="extension" data-source-line="19" id="lnk6"><path d="M2261.313,131.5736 C2245.733,151.4136 2237.42,161.9969 2221.8,181.8869" fill="none" id="Host-backto-Player" style="stroke:#181818;stroke-width:1;"/><polygon fill="none" points="2272.43,117.4169,2256.5941,127.8679,2266.0319,135.2792,2272.43,117.4169" style="stroke:#181818;stroke-width:1;"/></g><!--reverse link Player to Org--><g class="link" data-entity-1="ent0003" data-entity-2="ent0004" data-link-type="extension" data-source-line="20" id="lnk7"><path d="M2148.5181,223.5518 C1979.9881,239.3018 1104.39,321.1669 830.12,346.8069" fill="none" id="Player-backto-Org" style="stroke:#181818;stroke-width:1;"/><polygon fill="none" points="2166.44,221.8769,2147.9598,217.5778,2149.0764,229.5257,2166.44,221.8769" style="stroke:#181818;stroke-width:1;"/></g><!--reverse link Org to Admin--><g class="link" data-entity-1="ent0004" data-entity-2="ent0005" data-link-type="extension" data-source-line="21" id="lnk8"><path d="M651.76,355.5599 C496.04,355.4999 177.57,362.3869 80,420.7969 C67.25,428.4269 57.25,441.0069 49.81,453.4469" fill="none" id="Org-backto-Admin" style="stroke:#181818;stroke-width:1;"/><polygon fill="none" points="669.76,355.5669,651.7623,349.5599,651.7577,361.5599,669.76,355.5669" style="stroke:#181818;stroke-width:1;"/></g><!--link Host to UC1--><g class="link" data-entity-1="ent0002" data-entity-2="ent0010" data-link-type="dependency" data-source-line="38" id="lnk22"><path d="M2327.87,100.1369 C2431.16,166.2469 2786.9565,393.9824 2899.8865,466.2624" fill="none" id="Host-to-UC1" style="stroke:#181818;stroke-width:1;"/><polygon fill="#181818" points="2904.94,469.4969,2899.516,461.2761,2900.7287,466.8015,2895.2034,468.0142,2904.94,469.4969" style="stroke:#181818;stroke-width:1;"/></g><!--link Player to UC2--><g class="link" data-entity-1="ent0003" data-entity-2="ent0011" data-link-type="dependency" data-source-line="39" id="lnk23"><path d="M2166.24,233.5069 C2103.37,265.8069 1945.5,347.6469 1816,420.7969 C1787.01,437.1669 1759.7049,453.5166 1736.1849,467.8366" fill="none" id="Player-to-UC2" style="stroke:#181818;stroke-width:1;"/><polygon fill="#181818" points="1731.06,470.9569,1740.8274,469.6931,1735.3307,468.3567,1736.6671,462.86,1731.06,470.9569" style="stroke:#181818;stroke-width:1;"/></g><!--link Player to UC3--><g class="link" data-entity-1="ent0003" data-entity-2="ent0012" data-link-type="dependency" data-source-line="40" id="lnk24"><path d="M2166.36,250.2369 C2117.72,304.6769 2021.7675,412.0825 1977.2475,461.9125" fill="none" id="Player-to-UC3" style="stroke:#181818;stroke-width:1;"/><polygon fill="#181818" points="1973.25,466.3869,1982.2292,462.3404,1976.5813,462.6583,1976.2634,457.0103,1973.25,466.3869" style="stroke:#181818;stroke-width:1;"/></g><!--link Player to UC4--><g class="link" data-entity-1="ent0003" data-entity-2="ent0013" data-link-type="dependency" data-source-line="41" id="lnk25"><path d="M2194,256.8269 C2194,315.4169 2194,420.5469 2194,465.5969" fill="none" id="Player-to-UC4" style="stroke:#181818;stroke-width:1;"/><polygon fill="#181818" points="2194,471.5969,2198,462.5969,2194,466.5969,2190,462.5969,2194,471.5969" style="stroke:#181818;stroke-width:1;"/></g><!--link Player to UC5--><g class="link" data-entity-1="ent0003" data-entity-2="ent0014" data-link-type="dependency" data-source-line="42" id="lnk26"><path d="M2221.69,249.1869 C2271.17,302.5869 2369.9218,409.186 2417.1918,460.196" fill="none" id="Player-to-UC5" style="stroke:#181818;stroke-width:1;"/><polygon fill="#181818" points="2421.27,464.5969,2418.0866,455.2767,2417.8715,460.9295,2412.2187,460.7143,2421.27,464.5969" style="stroke:#181818;stroke-width:1;"/></g><!--link Player to UC6--><g class="link" data-entity-1="ent0003" data-entity-2="ent0015" data-link-type="dependency" data-source-line="43" id="lnk27"><path d="M2221.92,232.3269 C2287.42,263.1369 2455.67,343.7169 2591,420.7969 C2619.76,437.1769 2646.5438,454.3196 2668.7038,468.9596" fill="none" id="Player-to-UC6" style="stroke:#181818;stroke-width:1;"/><polygon fill="#181818" points="2673.71,472.2669,2668.4056,463.9685,2669.5382,469.5108,2663.9959,470.6433,2673.71,472.2669" style="stroke:#181818;stroke-width:1;"/></g><!--link Org to UC7--><g class="link" data-entity-1="ent0004" data-entity-2="ent0016" data-link-type="dependency" data-source-line="44" id="lnk28"><path d="M827.35,393.8369 C842.52,402.1169 858.04,411.2869 872,420.7969 C897.29,438.0269 919.2796,457.7543 935.0696,472.8243" fill="none" id="Org-to-UC7" style="stroke:#181818;stroke-width:1;"/><polygon fill="#181818" points="939.41,476.9669,935.661,467.8595,935.793,473.5148,930.1376,473.6467,939.41,476.9669" style="stroke:#181818;stroke-width:1;"/></g><!--link Org to UC8--><g class="link" data-entity-1="ent0004" data-entity-2="ent0017" data-link-type="dependency" data-source-line="45" id="lnk29"><path d="M750,393.9069 C750,418.0869 750,442.6869 750,463.0769" fill="none" id="Org-to-UC8" style="stroke:#181818;stroke-width:1;"/><polygon fill="#181818" points="750,469.0769,754,460.0769,750,464.0769,746,460.0769,750,469.0769" style="stroke:#181818;stroke-width:1;"/></g><!--link Org to UC9--><g class="link" data-entity-1="ent0004" data-entity-2="ent0018" data-link-type="dependency" data-source-line="46" id="lnk30"><path d="M679.21,393.8269 C662.71,402.6269 645.22,412.0069 629,420.7969 C599.22,436.9369 570.9392,452.5108 545.6692,466.5008" fill="none" id="Org-to-UC9" style="stroke:#181818;stroke-width:1;"/><polygon fill="#181818" points="540.42,469.4069,550.2313,468.5472,544.7944,466.9851,546.3565,461.5482,540.42,469.4069" style="stroke:#181818;stroke-width:1;"/></g><!--link Org to UC10--><g class="link" data-entity-1="ent0004" data-entity-2="ent0019" data-link-type="dependency" data-source-line="47" id="lnk31"><path d="M669.63,363.6269 C592.46,372.1569 473.27,389.2969 374,420.7969 C338.33,432.1169 305.5544,447.6026 276.9544,462.7226" fill="none" id="Org-to-UC10" style="stroke:#181818;stroke-width:1;"/><polygon fill="#181818" points="271.65,465.5269,281.476,464.8567,276.0703,463.19,277.737,457.7843,271.65,465.5269" style="stroke:#181818;stroke-width:1;"/></g><!--link Org to UC11--><g class="link" data-entity-1="ent0004" data-entity-2="ent0020" data-link-type="dependency" data-source-line="48" id="lnk32"><path d="M830.05,368.8469 C888.46,379.3069 968.97,396.4369 1037,420.7969 C1071.33,433.0869 1102.8303,448.9215 1130.0603,463.9915" fill="none" id="Org-to-UC11" style="stroke:#181818;stroke-width:1;"/><polygon fill="#181818" points="1135.31,466.8969,1129.3724,459.0391,1130.9353,464.4758,1125.4986,466.0386,1135.31,466.8969" style="stroke:#181818;stroke-width:1;"/></g><!--link Admin to UC12--><g class="link" data-entity-1="ent0005" data-entity-2="ent0021" data-link-type="dependency" data-source-line="49" id="lnk33"><path d="M49.42,453.7169 C59.95,434.8869 75.76,414.7069 97.5,407.2969 C129.1,396.5269 1267.22,398.7669 1299.5,407.2969 C1343.66,418.9769 1383.5633,443.5615 1412.4433,464.2615" fill="none" id="Admin-to-UC12" style="stroke:#181818;stroke-width:1;"/><polygon fill="#181818" points="1417.32,467.7569,1412.3352,459.2626,1413.2561,464.844,1407.6747,465.7649,1417.32,467.7569" style="stroke:#181818;stroke-width:1;"/></g><?plantuml-src RLFDRfj04Bxp52DwIQLOyGznRAcgv698BLMn5IizzBQ5ZRq5isXteILf7o4Fa5ivvk17Q2w4z-ekB0v4HaBmpNxpxJUpipmWKOmOsW7o16LhaOKOq4_CwGuR_B3eurkKXCAbaRX2EmmpHb3OMayuzX37S6y0V49Ui64qYNoRXfJ1EzTrH_PShL3cOwQZa_EnrRUCFosLoi9n3MVgs8xxLcDaZMPMNseOWWXftBoH7cnbP4xGHadsu9ggYY0k7ujzZFmCalAPY69l6aQzd_cPSc42ug1-3a5Mv2yFLNWLeWopPc79DYWYTqMkq9cKlzjI_-L12YgkN6s8Ctz7eYfO_Hc6aWVvVFZTwpMYzKV7LB9yuK3IYGnx0aKRLU1Y3ULVv6rfMZo1D14ZdfbLoveZC5UCRiDYNpvZ0I9X4VgXwa-BVpp4Vf1LZcxiGJlb6cy85uocI03NtI9I9ET4QFwmpL_73AKLEsRqbeHmudnPdeAxc3kmcB_NAQEEgrT5jOLF6s-QRBN9tv0ljQKDAbBcompj7WUwvaHddNUse7xjI63PwBVKSNU3aAenq2OqvU9uZLmW9cWQ5Ni8PPj8r4XEslnB7E6wWz9tyZqaGGK2EQcQFctJbqfU6eYBN6OLkL8_W_8HbpbHMP58TiWZpMdrsxdEhvWgHqYy7YkSsEklfx2wl6hQFnWSBqVDl_pYwbhmZ8lYQTUa3DLTgkUqr_jOZOcUq1eEkt3KXLONddVXMCzsZIuwQD91qmwIjNVWmAYkHGE7_m40?></g></svg>