<?xml version="1.0" encoding="UTF-8"?>
<svg xmlns="http://www.w3.org/2000/svg" width="1000" height="900" viewBox="0 0 1000 900">
  <defs>
    <style>
      .bg { fill: #fdfdfd; }
      .actor { fill: #e9ecef; stroke: #343a40; stroke-width: 2px; }
      .usecase { fill: #fff3cd; stroke: #856404; stroke-width: 2px; }
      .title { font: bold 18px Arial, sans-serif; fill: #212529; }
      .text { font: 13px Arial, sans-serif; fill: #212529; }
      .line { stroke: #495057; stroke-width: 2px; fill: none; }
    </style>
  </defs>

  <rect width="1000" height="900" class="bg" />
  <text x="40" y="45" class="title" font-size="24px">UML Use Case Diagram - Role a Případy Užití</text>

  <path d="M 120 150 L 360 100" class="line" /> <path d="M 120 150 L 360 180" class="line" /> <path d="M 120 400 L 360 100" class="line" /> <path d="M 120 400 L 360 180" class="line" /> <path d="M 120 400 L 360 420" class="line" /> <path d="M 120 400 L 360 580" class="line" /> <path d="M 120 400 L 360 660" class="line" /> <path d="M 880 150 L 640 260" class="line" /> <path d="M 880 150 L 640 340" class="line" /> <path d="M 880 150 L 640 500" class="line" /> <path d="M 880 450 L 640 500" class="line" /> <path d="M 880 450 L 640 580" class="line" /> <path d="M 880 450 L 640 660" class="line" /> <path d="M 880 750 L 640 740" class="line" /> <path d="M 880 750 L 640 820" class="line" /> <g transform="translate(60, 110)">
    <circle cx="40" cy="20" r="15" class="actor" />
    <line x1="40" y1="35" x2="40" y2="70" class="line" />
    <line x1="15" y1="50" x2="65" y2="50" class="line" />
    <line x1="40" y1="70" x2="20" y2="100" class="line" />
    <line x1="40" y1="70" x2="60" y2="100" class="line" />
    <text x="40" y="125" class="title" text-anchor="middle">Host</text>
  </g>

  <g transform="translate(60, 360)">
    <circle cx="40" cy="20" r="15" class="actor" />
    <line x1="40" y1="35" x2="40" y2="70" class="line" />
    <line x1="15" y1="50" x2="65" y2="50" class="line" />
    <line x1="40" y1="70" x2="20" y2="100" class="line" />
    <line x1="40" y1="70" x2="60" y2="100" class="line" />
    <text x="40" y="125" class="title" text-anchor="middle">Hráč</text>
  </g>

  <g transform="translate(860, 110)">
    <circle cx="40" cy="20" r="15" class="actor" />
    <line x1="40" y1="35" x2="40" y2="70" class="line" />
    <line x1="15" y1="50" x2="65" y2="50" class="line" />
    <line x1="40" y1="70" x2="20" y2="100" class="line" />
    <line x1="40" y1="70" x2="60" y2="100" class="line" />
    <text x="40" y="125" class="title" text-anchor="middle">Organizátor</text>
  </g>

  <g transform="translate(860, 410)">
    <circle cx="40" cy="20" r="15" class="actor" />
    <line x1="40" y1="35" x2="40" y2="70" class="line" />
    <line x1="15" y1="50" x2="65" y2="50" class="line" />
    <line x1="40" y1="70" x2="20" y2="100" class="line" />
    <line x1="40" y1="70" x2="60" y2="100" class="line" />
    <text x="40" y="125" class="title" text-anchor="middle">Rozhodčí</text>
  </g>

  <g transform="translate(860, 710)">
    <circle cx="40" cy="20" r="15" class="actor" />
    <line x1="40" y1="35" x2="40" y2="70" class="line" />
    <line x1="15" y1="50" x2="65" y2="50" class="line" />
    <line x1="40" y1="70" x2="20" y2="100" class="line" />
    <line x1="40" y1="70" x2="60" y2="100" class="line" />
    <text x="40" y="125" class="title" text-anchor="middle">Admin</text>
  </g>

  <g class="usecase">
    <ellipse cx="500" cy="100" rx="140" ry="28" />
    <text x="500" y="105" class="title" font-size="14px" text-anchor="middle">Prohlížet veřejné turnaje</text>
  </g>
  <g class="usecase">
    <ellipse cx="500" cy="180" rx="140" ry="28" />
    <text x="500" y="185" class="title" font-size="14px" text-anchor="middle">Registrace a profil</text>
  </g>
  <g class="usecase">
    <ellipse cx="500" cy="260" rx="140" ry="28" />
    <text x="500" y="265" class="title" font-size="14px" text-anchor="middle">Založit turnaj</text>
  </g>
  <g class="usecase">
    <ellipse cx="500" cy="340" rx="140" ry="28" />
    <text x="500" y="345" class="title" font-size="14px" text-anchor="middle">Správa startovky</text>
  </g>
  <g class="usecase">
    <ellipse cx="500" cy="420" rx="140" ry="28" />
    <text x="500" y="425" class="title" font-size="14px" text-anchor="middle">Přihlášení do turnaje</text>
  </g>
  <g class="usecase">
    <ellipse cx="500" cy="500" rx="140" ry="28" />
    <text x="500" y="505" class="title" font-size="14px" text-anchor="middle">Generovat a upravit los</text>
  </g>
  <g class="usecase">
    <ellipse cx="500" cy="580" rx="140" ry="28" />
    <text x="500" y="585" class="title" font-size="14px" text-anchor="middle">Zadat a potvrdit výsledek</text>
  </g>
  <g class="usecase">
    <ellipse cx="500" cy="660" rx="140" ry="28" />
    <text x="500" y="665" class="title" font-size="14px" text-anchor="middle">Podat protest</text>
  </g>
  <g class="usecase">
    <ellipse cx="500" cy="740" rx="140" ry="28" />
    <text x="500" y="745" class="title" font-size="14px" text-anchor="middle">Export dat a reporty</text>
  </g>
  <g class="usecase">
    <ellipse cx="500" cy="820" rx="140" ry="28" />
    <text x="500" y="825" class="title" font-size="14px" text-anchor="middle">Globální správa systému</text>
  </g>
</svg>
